<?xml version="1.0" encoding="UTF-8"?>
<svg data-id="Layer_2" xmlns="http://www.w3.org/2000/svg" xmlns:xlink="http://www.w3.org/1999/xlink" viewBox="0 0 1293.66 722.85">
  <defs>
    <style>
      .cls-1 {
        opacity: .33;
      }

      .cls-2 {
        clip-path: url(#clippath-4);
      }

      .cls-3 {
        opacity: .61;
      }

      .cls-4 {
        opacity: .51;
      }

      .cls-5 {
        opacity: .67;
      }

      .cls-6 {
        opacity: .35;
      }

      .cls-7 {
        opacity: .17;
      }

      .cls-8 {
        opacity: .72;
      }

      .cls-9 {
        fill: none;
      }

      .cls-10 {
        clip-path: url(#clippath-1);
      }

      .cls-11 {
        opacity: .36;
      }

      .cls-12 {
        opacity: .21;
      }

      .cls-13 {
        clip-path: url(#clippath-3);
      }

      .cls-14 {
        opacity: .42;
      }

      .cls-15 {
        opacity: .43;
      }

      .cls-16 {
        opacity: .71;
      }

      .cls-17 {
        clip-path: url(#clippath-2);
      }

      .cls-18 {
        opacity: .38;
      }

      .cls-19 {
        fill: #f57f45;
      }

      .cls-20 {
        opacity: .32;
      }

      .cls-21 {
        opacity: .44;
      }

      .cls-22 {
        fill: #e84546;
      }

      .cls-23 {
        fill: #fcebb8;
      }

      .cls-24 {
        clip-path: url(#clippath);
      }

      .cls-25 {
        opacity: .5;
      }

      .cls-26 {
        fill: #071835;
      }
    </style>
    <clipPath id="clippath">
      <path class="cls-9" d="M404.07,69.06c-46.01-62.06-146.23-45.53-250.19,36.85C42.21,194.41,18.88,261.88,45.39,297.64c16.63,22.44,49.93,27.78,84.97,0,28.74-22.77,42.22-58.85,34.28-87.9-1.43-5.23-8.65-5.6-11.87-.63-3.02,4.67-6.75,8.77-11.12,12.23-12.32,9.76-25.1,8.2-31.33-.22-12.74-17.18-3.23-46.42,52.98-90.97,14.57-11.55,28.41-21.37,39.48-28.29,5.42-3.39,11.37,1.13,9.29,7.06-16.7,47.58-11.8,94.14-13.37,144.02-2.77,77.89-27.01,100.44-35.1,106.85-15.79,12.51-30.63,9.8-37.65.34-3.95-5.33-5.66-12.68-3.74-20.9,1.25-5.35-3.89-9.19-8.9-6.62-6.66,3.42-13.3,7.45-18.27,11.39-33.5,26.55-47.27,76.42-22.05,110.43,22.61,30.5,69.07,37.1,119.13-2.57,52.37-41.5,75.12-97.38,53.17-215.23-14.2-75.17-15.27-104.66-5.66-149.09.55-2.53,2.44-4.73,4.91-5.63,29.82-10.8,70.22-12.13,88.12,12.02,10.66,14.38,10,34.93-6.56,48.05-13.48,10.68-29.34,9.89-39.48-3.78-.26-.35-.51-.7-.76-1.06-2.69-3.86-8.88-3.13-11.4,1.47-14.03,25.57-11.38,51.95,2.51,70.69,22.09,29.8,62.33,31.31,100.84.8,50.06-39.67,54.59-102.82,26.26-141.03Z"/>
    </clipPath>
    <clipPath id="clippath-1">
      <path class="cls-9" d="M1177.15,88.23c-15.75,20.9-33.87,37.7-55.26,50.5l38.67-86.54-48.07,4.51c-3.99,9.62-19.46,42.21-19.46,42.21-6.6,14.49-19.64,27.12-31.43,28.23-7.44.7-11.99-2.57-11.8-9.06.09-3.09,2.42-8.86,5.09-15.89,6-15.05,15.55-35.37,18.52-41.81l-48.38,4.54c-3.37,7.51-10.78,24.07-17.77,40.32-10.23,13.18-24.59,30.55-39.67,31.96-7.44.7-11.98-2.88-11.71-12.46.42-14.84,14.65-36.51,27.05-48.16l-5.67-7.17-54.28,5.09c-1.86.17-8.99.84-8.92-1.63l.79-5.93c.22-7.73-7.37-12.87-14.81-12.17-8.99.84-15.68,7.33-15.93,16.29-.18,6.18,5.19,13.08,10.7,15.33-6.76,12.66-15.3,25.86-23.02,35.81-9.46,11.75-21.64,25.1-35.98,26.44-10.86,1.02-14.72-4.48-14.53-10.97.14-4.95,1.8-8.8,4.11-13.95l13.86-30.28,17.37-1.63,5.59-11.62-17.99,1.69,18.51-41.5-16.44,1.54c-12.69,21.84-41.37,40.56-64.73,46.15l-5.27,11.28,15.51-1.46-12.5,27.84c-.17.15-.32.3-.46.48-7.77,9.88-17.74,22.31-29.51,27.85-19.47,9.18-26.97.72-16.22-18.09,4.89-8.57,12.76-17.21,13.06-27.52.51-17.93-17.33-21.49-32.21-20.09-13.72,1.29-27.4,7.95-39.08,16.65-2.6,1.93-5.7-.45-4.37-3.35.97-2.1-.45-4.24-2.67-4.03l-38.54,3.62c-1.22.11-2.35.95-2.86,2.11l-16.75,38.06c-.3.2-.57.45-.81.74-10.42,13.09-23.77,29.2-38.7,30.6-8.37.79-10.98-5.44-10.81-11.31.33-11.55,13.54-37.22,20.62-51.17,1.08-2.12-.34-4.36-2.61-4.15l-39.01,3.66c-1.2.11-2.31.91-2.83,2.05l-1.8,3.86c-.99,2.13-3.71,2.72-5.14,1.17-7.75-8.39-20.62-11.01-32.63-9.88-36.6,3.44-75.61,37.3-76.7,75.32-.8,28.13,17.42,39.67,41,37.46,20.47-1.92,41.08-19.58,50.53-36.18l.92.22c-.55,19.16,9.98,29.58,27.66,27.92,18.65-1.75,36.99-14.71,54.13-33.52l-9.27,21.08c-.92,2.09.5,4.18,2.69,3.98l41.12-3.86c1.22-.11,2.35-.94,2.86-2.1l21.64-48.9c7.28-16.71,21.77-36.57,41.31-38.4,5.27-.49,10.46,2.1,10.29,7.97-.34,12.05-25.37,32.59-25.99,54.22-.51,17.93,13.51,25.24,30.26,23.67,20.12-1.89,42.02-20.17,59.42-39.68-.21,1.38-.34,2.75-.38,4.12-.57,19.78,10.9,29.8,31.37,27.88,34.17-3.21,66.22-37.91,85.24-65.53,6.06-7.96,12.82-18.99,19.61-31.54,8.84,4.72,17.4,7.92,28.19,9.38-12.7,11.36-28.75,31.98-29.24,48.98-.49,17.31,11.26,28.23,31.73,26.3,21.79-2.05,44.46-20.96,62.27-41.04-.36,2.2-.59,4.44-.66,6.6-.41,14.22,8.2,26.97,29.6,24.96,24.19-2.27,46.01-18.81,61.72-38.16l-9.51,29.87c-27.25,11.8-80.29,38.67-81.26,72.67-.46,16.07,11.66,24.8,28.1,23.25,29.15-2.74,64.86-39.99,89.06-96.52,33.96-19.22,52.64-34.53,74.64-68.04l-11.1-1.12ZM489.8,180.91c-10.23.96-15.9-6.52-15.61-16.72.2-7.11,2.6-15.04,7.77-22.92,7.45-11.8,17.87-19.25,26.87-20.09,10.24-.96,15.9,6.52,15.6,17.03-.56,19.47-20.05,41.34-34.63,42.7ZM1043.35,224.4c-3.72.35-7.66-2.67-7.49-8.54.36-12.67,11.97-29.17,38.95-42.49-3.78,13.3-14.4,49.44-31.46,51.04Z"/>
    </clipPath>
    <clipPath id="clippath-2">
      <path class="cls-9" d="M604.46,350.12c-1.5,15.76-8.24,33.61-23.68,42.48-33.14,19.02-47.88-26.23-86.87-23.26,12.26-2.52,23.69-7.73,34.61-14,45.19-25.94,62.43-63.82,48.21-93.12-20.56-42.36-101.4-34.33-189.51,16.25-111.84,64.19-140.82,115.58-125.4,147.35,14.91,30.71,53.29,24.48,81.15,8.49,34.27-19.67,55.31-55.67,53.01-88.19-2.84,7.05-11.67,16.63-21.84,22.46-12.8,7.35-25.92,8.11-31.74-3.9-13.02-26.83,33.81-57.32,54.52-69.2,53.47-30.69,108.46-37.43,123.71-6.01,7.88,16.24-.4,40.85-31.28,58.57-12.05,6.92-25.67,11.58-37.11,11.82-.66-32.12,1.97-53.48,20.65-75.49-5.75,1.05-11.54,3.01-16.81,6.04-21.84,12.54-35.01,34.99-50.19,116.82-12.17,65.2-27.77,93.57-50.74,106.75-15.06,8.65-29.2,7.28-34.86-4.37-3.43-7.06-2.71-16.5,1.63-24.41-7.63,2.12-15.13,5.53-22.29,9.63-33.51,19.24-45.9,60.19-31.16,90.55,16.28,33.54,56.51,42.04,101.32,16.32,53.1-30.47,77.96-95.3,81.96-214.04,18.35-2.86,29.49,15.12,36,28.54,7.71,15.89,7.27,32.84,17.04,52.96,11.82,24.36,38.43,32.56,65.17,17.21,47.07-27.02,56.29-92.34,38.3-129.4-1.2-2.47-2.78-4.73-3.8-6.84Z"/>
    </clipPath>
    <clipPath id="clippath-3">
      <path class="cls-9" d="M905.8,320.36c15.17-1.42,33.22-13.41,33.71-30.37.48-16.96-16.26-24.95-31.8-23.49-15.17,1.42-33.22,13.41-33.71,30.37-.5,17.33,16.26,24.95,31.8,23.49Z"/>
    </clipPath>
    <clipPath id="clippath-4">
      <path class="cls-9" d="M1182.24,356.56c-13.01,16.3-28.72,36.52-48.7,38.4-9.6.17-11.99-6.6-11.86-11.02.17-5.9,2.94-12.41,4.56-17.34,0,0,61.2-140.32,61.57-140.36l-57.35,5.38-43.8,99.34c-8.47-13.54-25.37-16-41.65-14.48-34.17,3.21-70.11,28.66-84.74,61.32-23.17,30.48-35.83,36.77-47.98,37.91-7.77.73-13.18-3.54-12.95-11.65.18-6.27,2.58-12.74,5.35-19.25l21.33-49.07-57.35,5.38-20.57,47.28c-12.57,15.82-28.87,36.05-47.17,37.77-9.99.94-13.1-6.49-12.9-13.5.44-15.48,20.31-52.28,27.36-66.55l-54.76,5.14-5.9,12.69c-8.47-13.55-26.06-17.78-42.34-16.25-43.66,4.1-90.2,44.5-91.5,89.85-.96,33.55,20.79,47.32,48.9,44.68,24.42-2.29,49.01-23.35,60.27-43.16l1.1.26c-.65,22.86,11.91,35.28,32.99,33.3,24.85-2.33,49.23-21.33,71.68-48.13-.16,1.45-.28,2.89-.32,4.29-.67,23.6,13.73,35.85,38.15,33.56,29.99-2.81,58.24-28.83,79.82-55.65-.78,33.27,20.9,46.93,48.91,44.3,24.42-2.29,50.49-23.49,61.75-43.3l1.1.26c-.65,22.86,10.43,35.42,31.51,33.44,34.78-3.26,72.1-43.9,98.69-83.54l-13.25-1.33ZM705.1,435.91c-12.21,1.15-18.97-7.78-18.62-19.95.24-8.48,3.1-17.94,9.27-27.34,8.89-14.07,21.32-22.96,32.05-23.97,12.21-1.15,18.97,7.78,18.61,20.32-.66,23.23-23.92,49.31-41.31,50.94ZM1037.7,404.69c-12.21,1.15-18.97-7.78-18.62-19.95.24-8.48,3.1-17.94,9.27-27.34,8.89-14.07,21.32-22.96,32.05-23.97,12.21-1.15,18.97,7.78,18.61,20.32-.66,23.23-23.92,49.31-41.31,50.94Z"/>
    </clipPath>
  </defs>
  <g id="Layer_1-2" data-name="Layer_1">
    <g>
      <g>
        <path class="cls-26" d="M1291.39,412.51c-4.18-10.47-13.64-17.47-25.17-18.63l-13.25-1.33c-2.49-.25-5-.22-7.49.07,16.92-38.71,33.31-76.08,36.3-82.64,2.52-4.95,4.02-10.42,4.18-16.07.55-19.32-14.72-33.51-34.11-31.69l-57.35,5.38c-.55.05-1.08.14-1.63.21,3.06-5.55,6.02-11.3,8.86-17.25,30.34-18.34,52.77-37.55,77.01-74.49,6.79-10.35,8.34-22.8,4.13-33.18-4.21-10.38-13.64-17.3-25.1-18.46l-.84-.08c1.56-8.58-.02-17.17-4.63-24.04-6.21-9.25-17.07-14.16-28.91-13.05l-48.07,4.51c-7.12.67-13.94,3.44-19.71,7.75-5.59-3.27-12.31-4.75-19.37-4.08l-48.38,4.54c-9.03.85-17.61,5.09-24.15,11.58-6.27-5.35-14.68-7.94-23.61-7.1l-35.92,3.37c-2.34-3.32-5.19-6.31-8.5-8.87-9.09-7.02-20.73-10.27-32.8-9.14-2.36.22-4.68.59-6.95,1.1-.45-.83-.94-1.64-1.47-2.43-6.21-9.25-17.07-14.15-28.9-13.04l-16.44,1.54c-12.5,1.17-24.25,8.88-30.84,20.23-6.27,10.79-24.49,23.29-39,26.76-6.29,1.5-12.15,4.61-17.05,8.88-11.49-7.62-27.14-11.15-45.47-9.43-11.47,1.08-23.22,4.44-34.81,9.9-3.59-.78-7.39-1.01-11.3-.64l-38.54,3.62c-9.83.92-19.14,5.52-26.24,12.57-6.77-5.81-15.85-8.62-25.68-7.69l-39.01,3.66c-2.38.22-4.73.67-7.04,1.31-10.52-3.85-22.59-5.31-35.37-4.11-13.41,1.26-27.07,5.23-40.06,11.46-4.04-14.84-10.61-28.71-19.54-40.76-30.1-40.6-79.07-58.02-137.85-49.07-52.32,7.97-110.44,36.32-168.07,81.99-57.96,45.93-97.98,90.12-118.95,131.35-30.84,60.64-13.46,99.36-.36,117.04,7.86,10.6,17.81,18.84,29.24,24.4-8.69,13.58-15.06,28.55-18.5,43.94-7.28,32.57-1.29,63.98,16.86,88.46,17.99,24.26,45.22,38.05,76.68,38.82,4.51.11,9.12-.05,13.72-.48,28.06-2.63,57.26-15.42,84.46-36.97,9.29-7.36,17.72-15.07,25.31-23.14,7.4,9.1,16.85,15.82,27.94,19.92-36.55,31.91-50.24,84.22-30.11,125.69,12.26,25.25,34.22,41.83,61.85,46.67,8.89,1.56,18.11,1.88,27.55,1,18.94-1.78,38.73-8.42,58.43-19.73,35.45-20.34,60.79-51.4,77.47-94.95,5.19-13.56,9.58-28.54,13.17-45.08,14.87,26.7,42.02,39.96,71.41,37.2,12.55-1.18,25.52-5.28,38.11-12.51,8.36-4.8,16.07-10.5,23.08-16.99.88.81,1.75,1.58,2.61,2.29,14.97,12.39,35.25,17.78,58.63,15.58,18.43-1.73,35.88-9.45,50.9-20.01,11.34,8.18,26.23,12.04,43.46,10.42,19.44-1.82,38.87-9.82,58.1-23.86,12.99,10.83,30.73,15.52,51.41,13.58,22.38-2.1,44.76-12.08,66.91-29.76,1.14,1.08,2.27,2.07,3.38,2.98,14.96,12.28,35.16,17.62,58.44,15.43,18.24-1.71,36.06-9.41,51.54-20.07,11.34,8.34,26.21,12.03,42.83,10.47,52.93-4.97,98.89-57.94,128.12-101.51,6.94-10.35,8.61-22.88,4.43-33.35ZM1281.19,311.1c-.75,1.39-1.63,2.78-2.61,4.14.95-1.33,1.83-2.71,2.61-4.14ZM879.45,382.11l-54.76,5.14c-2.54.24-5.05.75-7.49,1.5-11.94-4.64-25.83-6.46-40.75-5.06-24.62,2.31-50.01,12.71-71.71,29.07-.47-1.07-.96-2.13-1.47-3.17-1.16-2.4-2.35-4.4-3.21-5.86-.23-.4-.47-.78-.68-1.16-5.1-10.33-15.38-16.4-26.95-16.62,10.02-24.43,9.83-49.41-.7-71.1-1.42-2.93-3.01-5.72-4.76-8.37l21.86-2.05c12.36-1.16,23.9-8.14,31.26-18.48,11.48,11.15,28.7,16.86,49.11,14.94,15.13-1.42,30.63-7.47,46.36-18.07,8.73,6.4,22.82,12.39,44.05,10.4,29.99-2.81,56.21-19.7,76.94-39.07,10.59,18.68,31.92,29.16,58.59,26.66,12.72-1.19,25.61-5.43,38.59-12.67-7.78,13.65-10.27,26.07-10.55,35.87-.18,6.34.57,12.31,2.13,17.81-3.16-3.67-6.87-6.94-11.13-9.7-11.83-7.67-26.91-11.1-42.44-9.64-32.72,3.07-68.72,30.19-69.82,68.65-.2,7.12.89,13.8,3.05,19.89-6.38-6.53-15.61-9.85-25.54-8.92Z"/>
        <path class="cls-23" d="M1234.31,351.12c-4.18-10.47-13.64-17.47-25.17-18.63l-13.25-1.33c-2.49-.25-5-.22-7.49.07,16.92-38.71,33.3-76.08,36.3-82.64,2.53-4.95,4.02-10.42,4.18-16.07.55-19.32-14.72-33.51-34.11-31.69l-57.35,5.38c-.55.05-1.08.14-1.63.21,3.06-5.55,6.02-11.3,8.86-17.25,30.33-18.34,52.77-37.55,77.01-74.49,6.79-10.35,8.34-22.8,4.13-33.18-4.21-10.38-13.64-17.3-25.1-18.46l-.84-.08c1.56-8.58-.02-17.17-4.63-24.04-6.21-9.25-17.07-14.16-28.91-13.05l-48.07,4.51c-7.12.67-13.94,3.44-19.71,7.75-5.59-3.27-12.31-4.75-19.37-4.08l-48.38,4.54c-9.03.85-17.61,5.09-24.15,11.58-6.27-5.35-14.68-7.94-23.61-7.1l-35.92,3.37c-2.34-3.32-5.19-6.31-8.5-8.87-9.08-7.02-20.73-10.27-32.8-9.14-2.36.22-4.68.59-6.95,1.1-.45-.83-.94-1.64-1.47-2.43-6.21-9.25-17.07-14.15-28.9-13.04l-16.44,1.54c-12.5,1.17-24.25,8.88-30.84,20.23-6.27,10.79-24.49,23.29-38.99,26.76-6.29,1.5-12.15,4.61-17.05,8.88-11.49-7.62-27.14-11.15-45.47-9.43-11.46,1.08-23.22,4.44-34.81,9.9-3.59-.78-7.39-1.01-11.3-.64l-38.54,3.62c-9.83.92-19.14,5.52-26.24,12.57-6.77-5.81-15.85-8.62-25.68-7.69l-39.01,3.66c-2.38.22-4.73.67-7.04,1.31-10.52-3.85-22.59-5.31-35.37-4.11-13.41,1.26-27.07,5.23-40.06,11.46-4.04-14.84-10.61-28.71-19.54-40.76C412,10.76,363.04-6.66,304.25,2.3c-52.32,7.97-110.44,36.32-168.07,81.99-57.96,45.93-97.98,90.12-118.95,131.35-30.84,60.64-13.46,99.36-.36,117.04,7.86,10.6,17.81,18.84,29.24,24.4-8.69,13.58-15.06,28.55-18.5,43.94-7.28,32.57-1.29,63.98,16.86,88.46,17.99,24.26,45.22,38.05,76.68,38.82,4.51.11,9.12-.05,13.72-.48,28.06-2.63,57.26-15.42,84.46-36.97,9.29-7.36,17.72-15.07,25.31-23.14,7.4,9.1,16.85,15.82,27.94,19.92-36.55,31.91-50.24,84.22-30.11,125.69,12.26,25.25,34.22,41.83,61.85,46.67,8.89,1.56,18.11,1.88,27.55,1,18.94-1.78,38.73-8.42,58.43-19.73,35.45-20.34,60.79-51.4,77.47-94.95,5.19-13.56,9.58-28.54,13.17-45.08,14.87,26.7,42.02,39.96,71.41,37.2,12.55-1.18,25.52-5.28,38.11-12.51,8.36-4.8,16.07-10.5,23.08-16.99.88.81,1.75,1.58,2.61,2.29,14.97,12.39,35.25,17.78,58.63,15.58,18.43-1.73,35.88-9.45,50.9-20.01,11.34,8.18,26.23,12.04,43.46,10.42,19.44-1.82,38.87-9.82,58.1-23.86,12.99,10.83,30.73,15.52,51.41,13.58,22.38-2.1,44.76-12.08,66.91-29.77,1.14,1.08,2.27,2.07,3.38,2.98,14.96,12.28,35.16,17.62,58.44,15.43,18.24-1.71,36.06-9.41,51.54-20.07,11.34,8.34,26.21,12.04,42.83,10.48,52.93-4.97,98.89-57.94,128.12-101.51,6.94-10.35,8.61-22.88,4.43-33.35ZM1224.1,249.72c-.75,1.38-1.62,2.76-2.6,4.12.95-1.32,1.82-2.7,2.6-4.12ZM822.37,320.71l-54.76,5.14c-2.54.24-5.05.75-7.49,1.5-11.94-4.64-25.83-6.46-40.75-5.06-24.62,2.31-50.01,12.71-71.71,29.07-.47-1.07-.96-2.13-1.47-3.17-1.16-2.4-2.35-4.4-3.21-5.86-.23-.4-.47-.78-.68-1.16-5.1-10.33-15.38-16.4-26.95-16.62,10.02-24.43,9.83-49.41-.7-71.1-1.42-2.93-3.01-5.72-4.76-8.37l21.86-2.05c12.36-1.16,23.9-8.14,31.26-18.48,11.48,11.15,28.7,16.86,49.11,14.94,15.13-1.42,30.63-7.47,46.36-18.07,8.73,6.4,22.82,12.39,44.05,10.4,29.99-2.81,56.21-19.7,76.94-39.07,10.59,18.68,31.92,29.16,58.59,26.65,12.72-1.19,25.61-5.43,38.6-12.67-7.78,13.65-10.27,26.07-10.56,35.87-.18,6.34.57,12.31,2.13,17.81-3.16-3.67-6.87-6.94-11.13-9.7-11.83-7.67-26.91-11.1-42.44-9.64-32.72,3.07-68.72,30.19-69.82,68.65-.2,7.12.89,13.8,3.05,19.89-6.38-6.53-15.61-9.85-25.54-8.92Z"/>
      </g>
      <g>
        <g>
          <g>
            <path class="cls-26" d="M419.13,81.93c-46.01-62.06-146.23-45.53-250.19,36.85C57.27,207.28,33.94,274.75,60.45,310.51c16.63,22.44,49.93,27.78,84.97,0,28.74-22.77,42.22-58.85,34.28-87.9-1.43-5.23-8.65-5.6-11.87-.63-3.02,4.67-6.75,8.77-11.12,12.23-12.32,9.76-25.1,8.2-31.33-.22-12.74-17.18-3.23-46.42,52.98-90.97,14.57-11.55,28.41-21.37,39.48-28.29,5.42-3.39,11.37,1.13,9.29,7.06-16.7,47.58-11.8,94.14-13.37,144.02-2.77,77.89-27.01,100.44-35.1,106.85-15.79,12.51-30.63,9.8-37.65.34-3.95-5.33-5.66-12.68-3.74-20.9,1.25-5.35-3.89-9.19-8.9-6.62-6.66,3.42-13.3,7.45-18.27,11.39-33.5,26.55-47.27,76.42-22.05,110.43,22.61,30.5,69.07,37.1,119.13-2.57,52.37-41.5,75.12-97.38,53.17-215.23-14.2-75.17-15.27-104.66-5.66-149.09.55-2.53,2.44-4.73,4.91-5.63,29.82-10.8,70.22-12.13,88.12,12.02,10.66,14.38,10,34.93-6.56,48.05-13.48,10.68-29.34,9.89-39.48-3.78-.26-.35-.52-.7-.76-1.06-2.69-3.86-8.88-3.13-11.4,1.47-14.03,25.57-11.38,51.95,2.51,70.69,22.09,29.8,62.33,31.31,100.84.8,50.06-39.67,54.59-102.82,26.26-141.03Z"/>
            <path class="cls-26" d="M1192.15,103.23c-15.75,20.9-33.87,37.7-55.26,50.5l38.67-86.54-48.07,4.51c-3.99,9.62-19.46,42.21-19.46,42.21-6.6,14.49-19.64,27.12-31.43,28.23-7.44.7-11.99-2.57-11.8-9.06.09-3.09,2.42-8.86,5.09-15.89,6-15.05,15.55-35.37,18.52-41.81l-48.38,4.54c-3.37,7.51-10.78,24.07-17.77,40.32-10.23,13.18-24.59,30.55-39.67,31.96-7.44.7-11.98-2.88-11.71-12.46.42-14.83,14.65-36.51,27.05-48.16l-5.67-7.17-54.28,5.09c-1.86.17-8.99.84-8.92-1.63l.79-5.93c.22-7.73-7.37-12.87-14.81-12.17-8.99.84-15.68,7.33-15.93,16.29-.18,6.18,5.19,13.08,10.7,15.33-6.76,12.66-15.3,25.86-23.02,35.81-9.46,11.75-21.64,25.1-35.98,26.44-10.86,1.02-14.72-4.48-14.53-10.97.14-4.95,1.8-8.8,4.11-13.95l13.86-30.28,17.37-1.63,5.59-11.62-17.99,1.69,18.51-41.5-16.44,1.54c-12.69,21.84-41.37,40.56-64.73,46.15l-5.27,11.28,15.51-1.46-12.5,27.84c-.17.15-.32.3-.46.48-7.77,9.88-17.74,22.31-29.51,27.85-19.47,9.18-26.97.72-16.22-18.09,4.89-8.57,12.76-17.21,13.06-27.52.51-17.93-17.33-21.49-32.21-20.09-13.72,1.29-27.4,7.95-39.08,16.65-2.6,1.93-5.7-.45-4.37-3.35h0c.97-2.1-.45-4.24-2.67-4.03l-38.54,3.62c-1.22.11-2.35.95-2.86,2.11l-16.75,38.06c-.3.2-.57.45-.81.74-10.42,13.09-23.77,29.2-38.7,30.6-8.37.79-10.98-5.44-10.81-11.31.33-11.55,13.54-37.22,20.62-51.17,1.08-2.12-.34-4.36-2.61-4.15l-39.01,3.66c-1.2.11-2.31.91-2.83,2.05l-1.8,3.86c-.99,2.13-3.71,2.72-5.14,1.17-7.75-8.39-20.62-11.01-32.63-9.88-36.6,3.43-75.61,37.3-76.7,75.32-.8,28.13,17.43,39.67,41,37.46,20.47-1.92,41.08-19.58,50.53-36.18l.92.22c-.55,19.16,9.98,29.58,27.66,27.92,18.65-1.75,36.99-14.71,54.13-33.52l-9.27,21.08c-.92,2.09.5,4.18,2.69,3.98l41.12-3.86c1.22-.11,2.35-.94,2.86-2.1l21.64-48.9c7.28-16.71,21.77-36.57,41.31-38.4,5.27-.49,10.46,2.1,10.29,7.97-.34,12.05-25.37,32.59-25.99,54.22-.51,17.93,13.51,25.24,30.26,23.67,20.12-1.89,42.02-20.17,59.42-39.68-.21,1.38-.34,2.75-.38,4.12-.57,19.78,10.9,29.8,31.37,27.88,34.17-3.21,66.22-37.91,85.24-65.53,6.06-7.96,12.82-18.99,19.61-31.54,8.84,4.72,17.4,7.92,28.19,9.38-12.7,11.36-28.75,31.98-29.24,48.98-.49,17.31,11.26,28.23,31.73,26.3,21.79-2.05,44.46-20.96,62.27-41.04-.36,2.2-.6,4.44-.66,6.6-.41,14.22,8.2,26.97,29.6,24.96,24.19-2.27,46.01-18.81,61.72-38.16l-9.51,29.87c-27.25,11.8-80.29,38.67-81.26,72.67-.46,16.07,11.66,24.8,28.1,23.25,29.15-2.74,64.86-39.99,89.06-96.52,33.96-19.22,52.64-34.53,74.64-68.04l-11.1-1.12ZM504.8,195.91c-10.23.96-15.9-6.52-15.61-16.72.2-7.11,2.6-15.04,7.77-22.92,7.45-11.8,17.87-19.25,26.87-20.09,10.24-.96,15.9,6.52,15.6,17.03-.56,19.47-20.05,41.34-34.63,42.7ZM1058.35,239.39c-3.72.35-7.66-2.67-7.49-8.54.36-12.67,11.97-29.17,38.95-42.49-3.78,13.3-14.4,49.44-31.46,51.04Z"/>
            <path class="cls-26" d="M419.13,81.93c-46.01-62.06-146.23-45.53-250.19,36.85C57.27,207.28,33.94,274.75,60.45,310.51c16.63,22.44,49.93,27.78,84.97,0,28.74-22.77,42.22-58.85,34.28-87.9-1.43-5.23-8.65-5.6-11.87-.63-3.02,4.67-6.75,8.77-11.12,12.23-12.32,9.76-25.1,8.2-31.33-.22-12.74-17.18-3.23-46.42,52.98-90.97,14.57-11.55,28.41-21.37,39.48-28.29,5.42-3.39,11.37,1.13,9.29,7.06-16.7,47.58-11.8,94.14-13.37,144.02-2.77,77.89-27.01,100.44-35.1,106.85-15.79,12.51-30.63,9.8-37.65.34-3.95-5.33-5.66-12.68-3.74-20.9,1.25-5.35-3.89-9.19-8.9-6.62-6.66,3.42-13.3,7.45-18.27,11.39-33.5,26.55-47.27,76.42-22.05,110.43,22.61,30.5,69.07,37.1,119.13-2.57,52.37-41.5,75.12-97.38,53.17-215.23-14.2-75.17-15.27-104.66-5.66-149.09.55-2.53,2.44-4.73,4.91-5.63,29.82-10.8,70.22-12.13,88.12,12.02,10.66,14.38,10,34.93-6.56,48.05-13.48,10.68-29.34,9.89-39.48-3.78-.26-.35-.52-.7-.76-1.06-2.69-3.86-8.88-3.13-11.4,1.47-14.03,25.57-11.38,51.95,2.51,70.69,22.09,29.8,62.33,31.31,100.84.8,50.06-39.67,54.59-102.82,26.26-141.03Z"/>
            <path class="cls-26" d="M1192.15,103.23c-15.75,20.9-33.87,37.7-55.26,50.5l38.67-86.54-48.07,4.51c-3.99,9.62-19.46,42.21-19.46,42.21-6.6,14.49-19.64,27.12-31.43,28.23-7.44.7-11.99-2.57-11.8-9.06.09-3.09,2.42-8.86,5.09-15.89,6-15.05,15.55-35.37,18.52-41.81l-48.38,4.54c-3.37,7.51-10.78,24.07-17.77,40.32-10.23,13.18-24.59,30.55-39.67,31.96-7.44.7-11.98-2.88-11.71-12.46.42-14.83,14.65-36.51,27.05-48.16l-5.67-7.17-54.28,5.09c-1.86.17-8.99.84-8.92-1.63l.79-5.93c.22-7.73-7.37-12.87-14.81-12.17-8.99.84-15.68,7.33-15.93,16.29-.18,6.18,5.19,13.08,10.7,15.33-6.76,12.66-15.3,25.86-23.02,35.81-9.46,11.75-21.64,25.1-35.98,26.44-10.86,1.02-14.72-4.48-14.53-10.97.14-4.95,1.8-8.8,4.11-13.95l13.86-30.28,17.37-1.63,5.59-11.62-17.99,1.69,18.51-41.5-16.44,1.54c-12.69,21.84-41.37,40.56-64.73,46.15l-5.27,11.28,15.51-1.46-12.5,27.84c-.17.15-.32.3-.46.48-7.77,9.88-17.74,22.31-29.51,27.85-19.47,9.18-26.97.72-16.22-18.09,4.89-8.57,12.76-17.21,13.06-27.52.51-17.93-17.33-21.49-32.21-20.09-13.72,1.29-27.4,7.95-39.08,16.65-2.6,1.93-5.7-.45-4.37-3.35h0c.97-2.1-.45-4.24-2.67-4.03l-38.54,3.62c-1.22.11-2.35.95-2.86,2.11l-16.75,38.06c-.3.2-.57.45-.81.74-10.42,13.09-23.77,29.2-38.7,30.6-8.37.79-10.98-5.44-10.81-11.31.33-11.55,13.54-37.22,20.62-51.17,1.08-2.12-.34-4.36-2.61-4.15l-39.01,3.66c-1.2.11-2.31.91-2.83,2.05l-1.8,3.86c-.99,2.13-3.71,2.72-5.14,1.17-7.75-8.39-20.62-11.01-32.63-9.88-36.6,3.43-75.61,37.3-76.7,75.32-.8,28.13,17.43,39.67,41,37.46,20.47-1.92,41.08-19.58,50.53-36.18l.92.22c-.55,19.16,9.98,29.58,27.66,27.92,18.65-1.75,36.99-14.71,54.13-33.52l-9.27,21.08c-.92,2.09.5,4.18,2.69,3.98l41.12-3.86c1.22-.11,2.35-.94,2.86-2.1l21.64-48.9c7.28-16.71,21.77-36.57,41.31-38.4,5.27-.49,10.46,2.1,10.29,7.97-.34,12.05-25.37,32.59-25.99,54.22-.51,17.93,13.51,25.24,30.26,23.67,20.12-1.89,42.02-20.17,59.42-39.68-.21,1.38-.34,2.75-.38,4.12-.57,19.78,10.9,29.8,31.37,27.88,34.17-3.21,66.22-37.91,85.24-65.53,6.06-7.96,12.82-18.99,19.61-31.54,8.84,4.72,17.4,7.92,28.19,9.38-12.7,11.36-28.75,31.98-29.24,48.98-.49,17.31,11.26,28.23,31.73,26.3,21.79-2.05,44.46-20.96,62.27-41.04-.36,2.2-.6,4.44-.66,6.6-.41,14.22,8.2,26.97,29.6,24.96,24.19-2.27,46.01-18.81,61.72-38.16l-9.51,29.87c-27.25,11.8-80.29,38.67-81.26,72.67-.46,16.07,11.66,24.8,28.1,23.25,29.15-2.74,64.86-39.99,89.06-96.52,33.96-19.22,52.64-34.53,74.64-68.04l-11.1-1.12ZM504.8,195.91c-10.23.96-15.9-6.52-15.61-16.72.2-7.11,2.6-15.04,7.77-22.92,7.45-11.8,17.87-19.25,26.87-20.09,10.24-.96,15.9,6.52,15.6,17.03-.56,19.47-20.05,41.34-34.63,42.7ZM1058.35,239.39c-3.72.35-7.66-2.67-7.49-8.54.36-12.67,11.97-29.17,38.95-42.49-3.78,13.3-14.4,49.44-31.46,51.04Z"/>
            <path class="cls-26" d="M139.2,497.36c-3.63,0-6.98-.25-10.01-.65-18.28-2.42-34.31-11.8-45.16-26.43-12.75-17.2-16.96-39.24-11.85-62.08,4.77-21.35,17.46-41.49,34.82-55.24,4.91-3.89,11.69-8.12,19.1-11.92,4.12-2.11,8.81-1.75,12.25.93,3.35,2.62,4.81,6.94,3.79,11.28-1.47,6.32-.45,12.28,2.89,16.79,2.42,3.27,6.06,5.37,10.23,5.92,6.2.82,13.4-1.74,20.29-7.2,19.6-15.53,31.39-52.15,33.21-103.11.36-11.39.38-22.8.4-33.82.06-38.19.12-74.25,13.25-111.67.16-.45.27-1.06-.12-1.38-.31-.25-.94-.32-1.79.21-11.41,7.14-25.27,17.07-39.02,27.97-46.47,36.83-64.96,66.68-52.07,84.07,1.99,2.69,4.85,4.34,8.27,4.79,4.96.65,10.62-1.31,15.94-5.52,3.94-3.13,7.32-6.84,10.03-11.03,2.7-4.18,7.51-6.4,12.23-5.67,4.23.65,7.55,3.6,8.66,7.7,8.54,31.27-6.26,69.57-36,93.13-24.2,19.18-44.61,21.18-57.47,19.48-13.93-1.84-26.22-9.1-34.63-20.43-10.65-14.37-18.96-40.15,1.99-81.33,18.18-35.76,54.32-75.22,107.41-117.29,34.36-27.23,68.43-47.54,101.25-60.36,32.79-12.81,62.76-17.54,89.08-14.06,28.27,3.74,50.8,16.69,66.98,38.51h0c14.95,20.17,21.22,47.03,17.19,73.7-4.32,28.62-20.07,54.98-44.37,74.23-22.06,17.48-45.91,25.57-67.15,22.76-16.43-2.17-30.54-10.64-40.81-24.5-16.06-21.66-17.13-50.1-2.88-76.08,2.09-3.8,6.01-6.31,10.24-6.53,3.88-.21,7.48,1.52,9.64,4.61.22.32.45.63.68.94,3.81,5.13,8.64,8.22,13.99,8.92,5.91.78,12.44-1.38,18.37-6.08,14.95-11.85,14.16-29.67,5.65-41.16-16.12-21.74-54.01-20.58-82.4-10.29-.83.3-1.54,1.12-1.73,1.98-9.48,43.86-8.36,72.73,5.69,147.11,10.75,57.69,11.14,103,1.19,138.52-9.1,32.48-26.94,58.4-56.16,81.55-28.77,22.8-53.34,28.71-71.08,28.71ZM131.61,349.68c-.28,0-.61.09-.95.26-6.84,3.51-13.04,7.36-17.45,10.86-29.78,23.6-45.38,70.83-21.14,103.53,9.35,12.62,22.64,20.39,38.44,22.47,15.95,2.11,41.65-.69,73.57-25.98,47.36-37.53,74.22-87.68,51.36-210.4-14.35-75.97-15.46-105.62-5.63-151.07.92-4.24,4.02-7.8,8.1-9.27,32.82-11.89,74.57-12.25,93.84,13.74,11.38,15.35,12.47,39.15-7.47,54.95-8.08,6.4-17.27,9.3-25.89,8.16-8.09-1.07-15.25-5.52-20.71-12.88-.29-.39-.57-.79-.85-1.19-.06-.09-.25-.37-.9-.34-.63.03-1.49.41-2.01,1.36-12.32,22.46-11.52,46.87,2.15,65.31,8.62,11.63,20.41,18.73,34.09,20.54,18.53,2.45,39.71-4.9,59.62-20.68,49.2-38.99,51.52-98.82,25.35-134.14h0c-14.5-19.56-34.77-31.18-60.25-34.55-49.85-6.59-116.48,19.78-182.82,72.35-51.95,41.17-87.18,79.52-104.71,113.98-14.74,28.99-15.74,53.49-2.87,70.85,6.87,9.27,16.52,14.97,27.9,16.47,15.69,2.08,32.96-3.94,49.95-17.4,26.69-21.15,40.08-55.14,32.57-82.66-.06-.2-.1-.38-.55-.45-.51-.08-1.57.09-2.3,1.22-3.3,5.11-7.41,9.63-12.22,13.44-7.46,5.91-15.79,8.61-23.46,7.6-6.08-.8-11.4-3.91-14.99-8.75-11.75-15.85-11.94-45.69,53.9-97.86,14.04-11.12,28.22-21.29,39.93-28.61,4.36-2.72,9.59-2.54,13.34.46,3.65,2.92,4.95,7.83,3.31,12.5-12.57,35.82-12.63,71.06-12.69,108.38-.02,11.1-.04,22.58-.4,34.14-2.46,69.15-21.47,98.31-36.99,110.61-11.58,9.17-21.51,10.11-27.81,9.28-6.89-.91-12.91-4.42-16.96-9.88-5.12-6.9-6.75-15.79-4.6-25.01.09-.37.12-.87-.21-1.12-.15-.12-.35-.18-.58-.18Z"/>
            <path class="cls-26" d="M1035.91,274.07c-8.59,0-16.08-2.64-21.39-7.61-5.52-5.17-8.3-12.42-8.06-20.96.95-33.36,44.72-59.71,82.19-76.2l2.23-7c-12.44,11.13-29.51,22.03-49.89,23.95-13.99,1.32-22.13-3.28-26.49-7.36-4.39-4.12-7.21-9.75-8.2-16.25-15.54,15.61-35.86,31.15-56.53,33.09-11.82,1.11-21.62-1.63-28.33-7.92-6.07-5.69-9.13-13.82-8.86-23.51.47-16.4,13.19-34.25,23.96-45.74-5.32-1.36-10.49-3.26-15.85-5.83-6.4,11.5-12.31,20.85-17.62,27.83-13.19,19.13-48.09,63.75-88.82,67.58-11.81,1.11-21.46-1.49-27.89-7.52-4.47-4.19-7.32-9.97-8.44-16.98-15.11,15.2-34.72,30.36-54.08,32.18-11.46,1.08-21.31-1.65-27.73-7.67-5.47-5.13-8.24-12.43-7.99-21.12.4-13.88,9.46-26.92,16.74-37.41,4.49-6.47,9.14-13.15,9.24-16.82.03-1.1-.32-1.57-.62-1.86-.81-.76-2.46-1.15-4.2-.99-16.73,1.57-30.18,19.33-37.19,35.42l-21.65,48.92c-1.25,2.83-3.92,4.77-6.96,5.06l-41.12,3.86c-2.78.26-5.39-.9-6.99-3.12-1.34-1.86-1.77-4.17-1.23-6.4-13.42,10.76-26.59,16.79-39.32,17.99-9.86.93-18.18-1.5-24.06-7.01-3.67-3.44-6.27-7.97-7.72-13.38-11.45,14.08-29.21,26.73-47.33,28.43-14.47,1.36-26.52-2.04-34.84-9.84-8-7.5-12.02-18.82-11.63-32.74.55-19.23,10-38.45,26.6-54.12,15.64-14.75,35.55-24.24,54.63-26.03,14.07-1.32,26.53,2.1,34.71,9.43l.8-1.71c1.28-2.75,3.92-4.64,6.9-4.92l39.01-3.66c2.87-.26,5.52.96,7.11,3.29,1.6,2.36,1.77,5.46.43,8.1l-.69,1.36c-6.68,13.15-19.1,37.64-19.39,47.7-.07,2.4.5,4.4,1.52,5.35.77.73,2.06,1.01,3.83.84,13.37-1.25,26.54-17.79,35.26-28.74.19-.23.38-.46.59-.67l16.29-37.03c1.25-2.84,3.92-4.79,6.97-5.08l38.54-3.62c2.8-.27,5.43.92,7.02,3.17.56.79.95,1.65,1.18,2.55,9.56-6.54,22.98-13.58,37.91-14.98,7.75-.73,22.07-.72,30.87,7.53,4.66,4.37,7.02,10.48,6.81,17.68-.26,9.13-5.32,16.81-9.77,23.6-1.43,2.18-2.78,4.23-3.94,6.26-5.15,9.02-4.47,13.04-3.82,13.74.63.68,4.46,1.64,13.57-2.65,11-5.19,21.06-17.97,27.71-26.42.06-.08.12-.15.19-.23l8.63-19.22-15.66,1.47,9.99-21.38,2.35-.56c23.92-5.72,50.39-24.54,61.57-43.79l1.29-2.23,27.52-2.58-18.51,41.5,18.28-1.72-10.65,22.14-17.31,1.62-12.65,27.65c-2.19,4.88-3.55,8.08-3.66,12.01-.04,1.36.17,3.22,1.4,4.37,1.37,1.29,4.1,1.81,7.67,1.47,12.16-1.14,23.28-13.08,32.56-24.6,6.75-8.7,14.14-20.01,20.24-30.9-5.03-3.96-9.21-10.51-9.02-17.26.32-11.34,8.74-20.03,20.46-21.12,5.52-.52,11.17,1.37,15.1,5.05,3.47,3.25,5.31,7.6,5.18,12.24l-.04.52-.28,2.11c.77-.02,1.74-.07,2.99-.19l56.98-5.35,10.2,12.91-3.35,3.14c-12.01,11.28-25.11,31.92-25.48,44.66-.09,3.14.45,5.43,1.53,6.44,1.08,1.01,3.16,1.05,4.72.91,13.62-1.28,28.41-20.04,35.79-29.54,6.26-14.55,12.98-29.64,17.55-39.8l1.19-2.66,59.92-5.62-5,10.84c-3.84,8.29-11.83,25.52-17.04,38.61l-.78,2.06c-1.83,4.78-3.9,10.2-3.96,12.13-.04,1.37.25,2.36.86,2.93.94.88,2.94,1.25,5.48,1.02,9.42-.88,21.17-11.77,27.35-25.32.19-.4,15.5-32.65,19.39-42.05l1.15-2.78,59.6-5.59-35.12,78.61c14.62-10.77,27.69-23.9,39.67-39.79l1.69-2.25,22.11,2.22-4.53,6.89c-23.13,35.23-42.74,50.5-74.89,68.81-24.59,56.6-60.79,95-92.52,97.97-1.4.13-2.77.2-4.12.2ZM1098.36,139.96l8.65,4.67-10.21,32.03-2.09.9c-28.85,12.5-77.39,37.98-78.25,68.22-.16,5.6,1.53,10.22,4.9,13.38,4.02,3.76,10.31,5.45,17.73,4.76,27.98-2.63,62.11-40.2,84.93-93.51l.66-1.55,1.47-.83c29.32-16.59,47.77-30.27,68.13-59.36-16.04,20.73-34.01,36.89-54.83,49.35l-13.59,8.13,41.63-93.19-36.59,3.43c-5.16,11.81-17.79,38.42-18.37,39.65-7.75,17.03-22.36,29.83-35.48,31.06-7.01.66-11.08-1.63-13.25-3.67-1.92-1.8-4.17-5.08-4.02-10.51.1-3.62,1.99-8.57,4.61-15.41l.81-2.11c4.44-11.15,10.77-25.06,15-34.24l-36.83,3.46c-6.16,13.74-11.85,26.68-16.54,37.59l-.25.59-.39.5c-12.97,16.71-27.17,32.37-43.15,33.87-5.23.49-9.44-.71-12.49-3.57-3.29-3.08-4.86-7.79-4.68-14.02.42-14.67,12.71-35.2,25.36-48.42l-1.22-1.54-51.57,4.84c-6.6.62-10.19.02-12.43-2.07-1.32-1.23-2.01-2.89-1.96-4.68l.04-.52.75-5.64c0-1.7-.69-3.19-2.02-4.44-1.84-1.73-4.65-2.64-7.32-2.39-6.64.62-11.22,5.23-11.4,11.46-.11,3.71,3.66,8.95,7.6,10.56l5.12,2.1-2.61,4.88c-6.82,12.76-15.37,26.07-23.48,36.52-10.64,13.22-23.6,26.87-39.47,28.36-6.65.63-11.85-.77-15.44-4.13-3.12-2.92-4.7-7.06-4.56-11.95.18-6.12,2.3-10.85,4.55-15.85l15.07-32.94,17.43-1.64.53-1.1-17.7,1.66,18.51-41.5-5.41.51c-14.28,22.66-42.26,39.72-64.17,45.66l-.57,1.23,15.36-1.44-16.46,36.66-.75.66c-7.23,9.19-18.13,23-31.21,29.16-14.71,6.93-21.81,4.04-25.18.39-3.4-3.68-5.74-11.09,2.48-25.49,1.31-2.3,2.81-4.58,4.27-6.79,4.09-6.22,7.95-12.1,8.13-18.39.13-4.38-1.07-7.68-3.65-10.1-4.34-4.07-12.76-5.84-23.09-4.87-14.66,1.38-27.97,9.29-36.56,15.68-3.06,2.28-7.02,2.26-9.85-.03-1.89-1.53-2.87-3.76-2.83-6.09l-34.51,3.24-16.99,38.61-1.03.7c-9.77,12.27-24.48,30.64-42,32.29-5.91.55-9.57-1.6-11.6-3.5-3.17-2.97-4.83-7.56-4.67-12.93.31-10.95,9.6-30.45,19.4-49.82l-34.04,3.19-1.45,3.12c-1.2,2.59-3.59,4.4-6.38,4.84-2.61.41-5.22-.48-6.97-2.38-5.84-6.32-16.49-9.42-28.49-8.29-33.2,3.12-71.12,33.92-72.17,70.48-.32,11.13,2.53,19.6,8.47,25.16,6.17,5.78,15.52,8.26,27.06,7.18,18.87-1.77,38.11-18.67,46.65-33.68l1.86-3.27,8.52,2.05-.12,4.06c-.24,8.23,1.81,14.61,5.91,18.45,3.73,3.49,9.36,5,16.29,4.35,15.84-1.49,32.97-12.22,50.9-31.91l8.27,5.38-7.79,17.7,36.37-3.41,21.3-48.13c3.94-9.05,18.91-38.87,45.41-41.35,4.67-.44,9.03.89,11.97,3.65,2.55,2.39,3.89,5.74,3.78,9.44-.19,6.64-5.21,13.87-11.03,22.24-6.87,9.88-14.65,21.09-14.96,31.99-.17,5.82,1.46,10.38,4.83,13.54,4.31,4.04,11.4,5.81,19.96,5.01,15.65-1.47,35.59-14.97,56.16-38.03l11.16-12.51-2.49,16.58c-.18,1.23-.29,2.41-.33,3.52-.23,8.06,1.72,14.08,5.79,17.9,4.28,4.01,11.24,5.69,20.12,4.86,36.6-3.44,69.25-45.48,81.59-63.39l.14-.2c5.58-7.31,12.21-17.99,19.19-30.89l2.37-4.37,4.39,2.34c9.23,4.93,17.16,7.57,26.5,8.83l10.75,1.45-8.08,7.23c-12.99,11.62-27.16,30.79-27.58,45.4-.19,6.74,1.78,12.25,5.7,15.92,4.56,4.27,11.67,6.09,20.56,5.26,21.7-2.04,44.06-22.54,58.99-39.38l11.44-12.9-2.76,17.02c-.34,2.1-.54,4.1-.59,5.94-.18,6.32,1.74,11.69,5.42,15.14,4.16,3.9,10.46,5.48,18.71,4.7,27.13-2.55,48.18-23.86,58.3-36.33ZM1057.77,244.42c-2.88,0-5.7-1.11-7.85-3.13-2.74-2.57-4.18-6.32-4.06-10.58.48-16.66,16.08-34.17,41.74-46.83l10.1-4.99-3.08,10.84c-6.43,22.62-17.14,52.9-35.81,54.65h0c-.35.03-.7.05-1.05.05ZM1081.37,198.76c-18.25,11.46-25.28,23.76-25.52,32.23-.04,1.36.28,2.42.9,3,.33.31.74.46,1.12.42,4.67-.44,13.53-5.92,23.5-35.66ZM503.05,201c-4.93,0-9.25-1.62-12.58-4.74-4.25-3.98-6.48-10.09-6.28-17.21.24-8.51,3.21-17.33,8.59-25.52,8.04-12.73,19.77-21.31,30.58-22.33,5.84-.54,10.94,1.05,14.74,4.61,4.28,4.02,6.53,10.24,6.32,17.54-.6,20.96-21.09,45.84-39.16,47.54-.75.07-1.49.11-2.22.11ZM504.33,190.94l.47,4.98-.47-4.98c12.02-1.13,29.61-20.9,30.1-37.87.13-4.39-1-7.93-3.16-9.95-1.68-1.57-4.03-2.23-6.97-1.96-7.67.72-16.74,7.7-23.11,17.78-4.41,6.71-6.81,13.74-7,20.4-.12,4.21.99,7.63,3.12,9.62,1.7,1.59,4.06,2.25,7.02,1.98Z"/>
          </g>
          <g>
            <g>
              <path class="cls-22" d="M404.13,66.93c-46.01-62.06-146.23-45.53-250.19,36.85C42.27,192.28,18.94,259.75,45.45,295.51c16.63,22.44,49.93,27.78,84.97,0,28.74-22.77,42.22-58.85,34.28-87.9-1.43-5.23-8.65-5.6-11.87-.63-3.02,4.67-6.75,8.77-11.12,12.23-12.32,9.76-25.1,8.2-31.33-.22-12.74-17.18-3.23-46.42,52.98-90.97,14.57-11.55,28.41-21.37,39.48-28.29,5.42-3.39,11.37,1.13,9.29,7.06-16.7,47.58-11.8,94.14-13.37,144.02-2.77,77.89-27.01,100.44-35.1,106.85-15.79,12.51-30.63,9.8-37.65.34-3.95-5.33-5.66-12.68-3.74-20.9,1.25-5.35-3.89-9.19-8.9-6.62-6.66,3.42-13.3,7.45-18.27,11.39-33.5,26.55-47.27,76.42-22.05,110.43,22.61,30.5,69.07,37.1,119.13-2.57,52.37-41.5,75.12-97.38,53.17-215.23-14.2-75.17-15.27-104.66-5.66-149.09.55-2.53,2.44-4.73,4.91-5.63,29.82-10.8,70.22-12.13,88.12,12.02,10.66,14.38,10,34.93-6.56,48.05-13.48,10.68-29.34,9.89-39.48-3.78-.26-.35-.52-.7-.76-1.06-2.69-3.86-8.88-3.13-11.4,1.47-14.03,25.57-11.38,51.95,2.51,70.69,22.09,29.8,62.33,31.31,100.84.8,50.06-39.67,54.59-102.82,26.26-141.03Z"/>
              <path class="cls-22" d="M1177.15,88.23c-15.75,20.9-33.87,37.7-55.26,50.5l38.67-86.54-48.07,4.51c-3.99,9.62-19.46,42.21-19.46,42.21-6.6,14.49-19.64,27.12-31.43,28.23-7.44.7-11.99-2.57-11.8-9.06.09-3.09,2.42-8.86,5.09-15.89,6-15.05,15.55-35.37,18.52-41.81l-48.38,4.54c-3.37,7.51-10.78,24.07-17.77,40.32-10.23,13.18-24.59,30.55-39.67,31.96-7.44.7-11.98-2.88-11.71-12.46.42-14.83,14.65-36.51,27.05-48.16l-5.67-7.17-54.28,5.09c-1.86.17-8.99.84-8.92-1.63l.79-5.93c.22-7.73-7.37-12.87-14.81-12.17-8.99.84-15.68,7.33-15.93,16.29-.18,6.18,5.19,13.08,10.7,15.33-6.76,12.66-15.3,25.86-23.02,35.81-9.46,11.75-21.64,25.1-35.98,26.44-10.86,1.02-14.72-4.48-14.53-10.97.14-4.95,1.8-8.8,4.11-13.95l13.86-30.28,17.37-1.63,5.59-11.62-17.99,1.69,18.51-41.5-16.44,1.54c-12.69,21.84-41.37,40.56-64.73,46.15l-5.27,11.28,15.51-1.46-12.5,27.84c-.17.15-.32.3-.46.48-7.77,9.88-17.74,22.31-29.51,27.85-19.47,9.18-26.97.72-16.22-18.09,4.89-8.57,12.76-17.21,13.06-27.52.51-17.93-17.33-21.49-32.21-20.09-13.72,1.29-27.4,7.95-39.08,16.65-2.6,1.93-5.7-.45-4.37-3.35h0c.97-2.1-.45-4.24-2.67-4.03l-38.54,3.62c-1.22.11-2.35.95-2.86,2.11l-16.75,38.06c-.3.2-.57.45-.81.74-10.42,13.09-23.77,29.2-38.7,30.6-8.37.79-10.98-5.44-10.81-11.31.33-11.55,13.54-37.22,20.62-51.17,1.08-2.12-.34-4.36-2.61-4.15l-39.01,3.66c-1.2.11-2.31.91-2.83,2.05l-1.8,3.86c-.99,2.13-3.71,2.72-5.14,1.17-7.75-8.39-20.62-11.01-32.63-9.88-36.6,3.43-75.61,37.3-76.7,75.32-.8,28.13,17.43,39.67,41,37.46,20.47-1.92,41.08-19.58,50.53-36.18l.92.22c-.55,19.16,9.98,29.58,27.66,27.92,18.65-1.75,36.99-14.71,54.13-33.52l-9.27,21.08c-.92,2.09.5,4.18,2.69,3.98l41.12-3.86c1.22-.11,2.35-.94,2.86-2.1l21.64-48.9c7.28-16.71,21.77-36.57,41.31-38.4,5.27-.49,10.46,2.1,10.29,7.97-.34,12.05-25.37,32.59-25.99,54.22-.51,17.93,13.51,25.24,30.26,23.67,20.12-1.89,42.02-20.17,59.42-39.68-.21,1.38-.34,2.75-.38,4.12-.57,19.78,10.9,29.8,31.37,27.88,34.17-3.21,66.22-37.91,85.24-65.53,6.06-7.96,12.82-18.99,19.61-31.54,8.84,4.72,17.4,7.92,28.19,9.38-12.7,11.36-28.75,31.98-29.24,48.98-.49,17.31,11.26,28.23,31.73,26.3,21.79-2.05,44.46-20.96,62.27-41.04-.36,2.2-.6,4.44-.66,6.6-.41,14.22,8.2,26.97,29.6,24.96,24.19-2.27,46.01-18.81,61.72-38.16l-9.51,29.87c-27.25,11.8-80.29,38.67-81.26,72.67-.46,16.07,11.66,24.8,28.1,23.25,29.15-2.74,64.86-39.99,89.06-96.52,33.96-19.22,52.64-34.53,74.64-68.04l-11.1-1.12ZM489.8,180.91c-10.23.96-15.9-6.52-15.61-16.72.2-7.11,2.6-15.04,7.77-22.92,7.45-11.8,17.87-19.25,26.87-20.09,10.24-.96,15.9,6.52,15.6,17.03-.56,19.47-20.05,41.34-34.63,42.7ZM1043.35,224.39c-3.72.35-7.66-2.67-7.49-8.54.36-12.67,11.97-29.17,38.95-42.49-3.78,13.3-14.4,49.44-31.46,51.04Z"/>
            </g>
            <g>
              <path class="cls-22" d="M404.13,66.93c-46.01-62.06-146.23-45.53-250.19,36.85C42.27,192.28,18.94,259.75,45.45,295.51c16.63,22.44,49.93,27.78,84.97,0,28.74-22.77,42.22-58.85,34.28-87.9-1.43-5.23-8.65-5.6-11.87-.63-3.02,4.67-6.75,8.77-11.12,12.23-12.32,9.76-25.1,8.2-31.33-.22-12.74-17.18-3.23-46.42,52.98-90.97,14.57-11.55,28.41-21.37,39.48-28.29,5.42-3.39,11.37,1.13,9.29,7.06-16.7,47.58-11.8,94.14-13.37,144.02-2.77,77.89-27.01,100.44-35.1,106.85-15.79,12.51-30.63,9.8-37.65.34-3.95-5.33-5.66-12.68-3.74-20.9,1.25-5.35-3.89-9.19-8.9-6.62-6.66,3.42-13.3,7.45-18.27,11.39-33.5,26.55-47.27,76.42-22.05,110.43,22.61,30.5,69.07,37.1,119.13-2.57,52.37-41.5,75.12-97.38,53.17-215.23-14.2-75.17-15.27-104.66-5.66-149.09.55-2.53,2.44-4.73,4.91-5.63,29.82-10.8,70.22-12.13,88.12,12.02,10.66,14.38,10,34.93-6.56,48.05-13.48,10.68-29.34,9.89-39.48-3.78-.26-.35-.52-.7-.76-1.06-2.69-3.86-8.88-3.13-11.4,1.47-14.03,25.57-11.38,51.95,2.51,70.69,22.09,29.8,62.33,31.31,100.84.8,50.06-39.67,54.59-102.82,26.26-141.03Z"/>
              <path class="cls-22" d="M1177.15,88.23c-15.75,20.9-33.87,37.7-55.26,50.5l38.67-86.54-48.07,4.51c-3.99,9.62-19.46,42.21-19.46,42.21-6.6,14.49-19.64,27.12-31.43,28.23-7.44.7-11.99-2.57-11.8-9.06.09-3.09,2.42-8.86,5.09-15.89,6-15.05,15.55-35.37,18.52-41.81l-48.38,4.54c-3.37,7.51-10.78,24.07-17.77,40.32-10.23,13.18-24.59,30.55-39.67,31.96-7.44.7-11.98-2.88-11.71-12.46.42-14.83,14.65-36.51,27.05-48.16l-5.67-7.17-54.28,5.09c-1.86.17-8.99.84-8.92-1.63l.79-5.93c.22-7.73-7.37-12.87-14.81-12.17-8.99.84-15.68,7.33-15.93,16.29-.18,6.18,5.19,13.08,10.7,15.33-6.76,12.66-15.3,25.86-23.02,35.81-9.46,11.75-21.64,25.1-35.98,26.44-10.86,1.02-14.72-4.48-14.53-10.97.14-4.95,1.8-8.8,4.11-13.95l13.86-30.28,17.37-1.63,5.59-11.62-17.99,1.69,18.51-41.5-16.44,1.54c-12.69,21.84-41.37,40.56-64.73,46.15l-5.27,11.28,15.51-1.46-12.5,27.84c-.17.15-.32.3-.46.48-7.77,9.88-17.74,22.31-29.51,27.85-19.47,9.18-26.97.72-16.22-18.09,4.89-8.57,12.76-17.21,13.06-27.52.51-17.93-17.33-21.49-32.21-20.09-13.72,1.29-27.4,7.95-39.08,16.65-2.6,1.93-5.7-.45-4.37-3.35h0c.97-2.1-.45-4.24-2.67-4.03l-38.54,3.62c-1.22.11-2.35.95-2.86,2.11l-16.75,38.06c-.3.2-.57.45-.81.74-10.42,13.09-23.77,29.2-38.7,30.6-8.37.79-10.98-5.44-10.81-11.31.33-11.55,13.54-37.22,20.62-51.17,1.08-2.12-.34-4.36-2.61-4.15l-39.01,3.66c-1.2.11-2.31.91-2.83,2.05l-1.8,3.86c-.99,2.13-3.71,2.72-5.14,1.17-7.75-8.39-20.62-11.01-32.63-9.88-36.6,3.43-75.61,37.3-76.7,75.32-.8,28.13,17.43,39.67,41,37.46,20.47-1.92,41.08-19.58,50.53-36.18l.92.22c-.55,19.16,9.98,29.58,27.66,27.92,18.65-1.75,36.99-14.71,54.13-33.52l-9.27,21.08c-.92,2.09.5,4.18,2.69,3.98l41.12-3.86c1.22-.11,2.35-.94,2.86-2.1l21.64-48.9c7.28-16.71,21.77-36.57,41.31-38.4,5.27-.49,10.46,2.1,10.29,7.97-.34,12.05-25.37,32.59-25.99,54.22-.51,17.93,13.51,25.24,30.26,23.67,20.12-1.89,42.02-20.17,59.42-39.68-.21,1.38-.34,2.75-.38,4.12-.57,19.78,10.9,29.8,31.37,27.88,34.17-3.21,66.22-37.91,85.24-65.53,6.06-7.96,12.82-18.99,19.61-31.54,8.84,4.72,17.4,7.92,28.19,9.38-12.7,11.36-28.75,31.98-29.24,48.98-.49,17.31,11.26,28.23,31.73,26.3,21.79-2.05,44.46-20.96,62.27-41.04-.36,2.2-.6,4.44-.66,6.6-.41,14.22,8.2,26.97,29.6,24.96,24.19-2.27,46.01-18.81,61.72-38.16l-9.51,29.87c-27.25,11.8-80.29,38.67-81.26,72.67-.46,16.07,11.66,24.8,28.1,23.25,29.15-2.74,64.86-39.99,89.06-96.52,33.96-19.22,52.64-34.53,74.64-68.04l-11.1-1.12ZM489.8,180.91c-10.23.96-15.9-6.52-15.61-16.72.2-7.11,2.6-15.04,7.77-22.92,7.45-11.8,17.87-19.25,26.87-20.09,10.24-.96,15.9,6.52,15.6,17.03-.56,19.47-20.05,41.34-34.63,42.7ZM1043.35,224.39c-3.72.35-7.66-2.67-7.49-8.54.36-12.67,11.97-29.17,38.95-42.49-3.78,13.3-14.4,49.44-31.46,51.04Z"/>
            </g>
            <g>
              <path class="cls-22" d="M124.2,482.36c-3.63,0-6.98-.25-10.01-.65-18.28-2.42-34.31-11.8-45.16-26.43-12.75-17.2-16.96-39.24-11.85-62.08,4.77-21.35,17.46-41.49,34.82-55.24,4.91-3.89,11.69-8.12,19.1-11.92,4.12-2.11,8.81-1.75,12.25.93,3.35,2.62,4.81,6.94,3.79,11.28-1.47,6.32-.45,12.28,2.89,16.79,2.42,3.27,6.06,5.37,10.23,5.92,6.2.82,13.4-1.74,20.29-7.2,19.6-15.53,31.39-52.15,33.21-103.11.36-11.39.38-22.8.4-33.82.06-38.19.12-74.25,13.25-111.67.16-.45.27-1.06-.12-1.38-.31-.25-.94-.32-1.79.21-11.41,7.14-25.27,17.07-39.02,27.97-46.47,36.83-64.96,66.68-52.07,84.07,1.99,2.69,4.85,4.34,8.27,4.79,4.96.65,10.62-1.31,15.94-5.52,3.94-3.13,7.32-6.84,10.03-11.03,2.7-4.18,7.5-6.4,12.23-5.67,4.23.65,7.55,3.6,8.66,7.7,8.54,31.27-6.26,69.57-36,93.13-24.2,19.18-44.61,21.18-57.47,19.48-13.93-1.84-26.22-9.1-34.63-20.43-10.65-14.37-18.96-40.15,1.99-81.33,18.18-35.76,54.32-75.22,107.41-117.29,34.36-27.23,68.43-47.54,101.25-60.36,32.79-12.81,62.76-17.54,89.08-14.06,28.27,3.74,50.8,16.69,66.98,38.51h0c14.95,20.17,21.22,47.03,17.19,73.7-4.32,28.62-20.07,54.98-44.37,74.23-22.06,17.48-45.9,25.56-67.15,22.76-16.43-2.17-30.54-10.64-40.81-24.5-16.06-21.66-17.13-50.1-2.88-76.08,2.09-3.8,6.01-6.31,10.24-6.53,3.88-.2,7.48,1.52,9.64,4.61.22.32.45.63.68.94,3.81,5.13,8.64,8.22,13.99,8.92,5.91.78,12.44-1.38,18.37-6.08,14.95-11.85,14.16-29.67,5.65-41.16-16.12-21.74-54.01-20.58-82.4-10.29-.83.3-1.54,1.12-1.73,1.98-9.48,43.86-8.36,72.73,5.69,147.11,10.75,57.69,11.14,103,1.19,138.52-9.1,32.48-26.94,58.4-56.16,81.55-28.77,22.8-53.34,28.71-71.08,28.71ZM116.61,334.68c-.28,0-.61.09-.95.26-6.84,3.51-13.04,7.36-17.45,10.86-29.78,23.6-45.38,70.83-21.14,103.53,9.35,12.62,22.64,20.39,38.44,22.47,15.95,2.11,41.65-.69,73.57-25.98,47.36-37.53,74.22-87.68,51.36-210.4-14.35-75.97-15.46-105.62-5.63-151.07.92-4.24,4.02-7.8,8.1-9.27,32.82-11.89,74.57-12.26,93.84,13.74,11.38,15.35,12.47,39.15-7.47,54.95-8.08,6.4-17.27,9.3-25.89,8.16-8.09-1.07-15.25-5.52-20.71-12.88-.29-.39-.57-.79-.85-1.19-.06-.09-.26-.38-.9-.34-.63.03-1.49.41-2.01,1.36-12.32,22.46-11.52,46.87,2.15,65.31,8.62,11.63,20.41,18.73,34.09,20.54,18.53,2.45,39.71-4.9,59.62-20.68,49.2-38.99,51.52-98.82,25.35-134.14h0c-14.5-19.56-34.77-31.18-60.25-34.55-49.85-6.59-116.48,19.78-182.82,72.35-51.95,41.17-87.18,79.52-104.71,113.98-14.74,28.99-15.74,53.49-2.87,70.85,6.87,9.27,16.52,14.97,27.9,16.47,15.69,2.07,32.96-3.94,49.95-17.4,26.69-21.15,40.08-55.14,32.57-82.66-.06-.2-.1-.38-.55-.45-.51-.08-1.57.09-2.3,1.22-3.3,5.11-7.41,9.63-12.22,13.44-7.46,5.91-15.79,8.61-23.46,7.6-6.08-.8-11.4-3.91-14.99-8.75-11.75-15.85-11.94-45.69,53.9-97.86,14.04-11.12,28.22-21.29,39.93-28.61,4.36-2.72,9.59-2.54,13.34.46,3.65,2.92,4.95,7.83,3.31,12.5-12.57,35.82-12.63,71.06-12.69,108.38-.02,11.1-.04,22.58-.4,34.14-2.46,69.15-21.47,98.31-36.99,110.61-11.58,9.17-21.51,10.11-27.81,9.28-6.89-.91-12.91-4.42-16.96-9.88-5.12-6.9-6.75-15.79-4.6-25.01.09-.37.12-.87-.21-1.12-.15-.12-.35-.18-.58-.18Z"/>
              <path class="cls-22" d="M1020.91,259.07c-8.59,0-16.08-2.64-21.39-7.61-5.52-5.17-8.3-12.42-8.06-20.96.95-33.36,44.72-59.71,82.19-76.2l2.23-7c-12.44,11.13-29.51,22.03-49.89,23.95-14,1.31-22.13-3.28-26.49-7.36-4.39-4.12-7.21-9.75-8.2-16.25-15.54,15.61-35.86,31.15-56.53,33.09-11.82,1.11-21.62-1.63-28.33-7.92-6.07-5.69-9.13-13.82-8.86-23.51.47-16.4,13.19-34.25,23.96-45.74-5.32-1.36-10.49-3.26-15.85-5.83-6.4,11.5-12.31,20.85-17.62,27.83-13.19,19.13-48.09,63.75-88.82,67.58-11.81,1.11-21.46-1.49-27.89-7.52-4.47-4.19-7.32-9.97-8.44-16.98-15.11,15.2-34.72,30.36-54.08,32.18-11.46,1.07-21.31-1.65-27.73-7.67-5.47-5.13-8.24-12.43-7.99-21.12.4-13.88,9.46-26.92,16.74-37.41,4.49-6.47,9.14-13.15,9.24-16.82.03-1.1-.32-1.57-.62-1.86-.81-.76-2.46-1.15-4.2-.99-16.73,1.57-30.18,19.33-37.19,35.42l-21.65,48.92c-1.25,2.83-3.92,4.77-6.96,5.06l-41.12,3.86c-2.78.26-5.39-.9-6.99-3.12-1.34-1.86-1.77-4.17-1.23-6.4-13.42,10.76-26.59,16.79-39.32,17.99-9.86.93-18.18-1.5-24.06-7.01-3.67-3.44-6.27-7.97-7.72-13.38-11.45,14.08-29.21,26.73-47.33,28.43-14.47,1.36-26.52-2.04-34.84-9.84-8-7.5-12.02-18.82-11.63-32.74.55-19.23,10-38.45,26.6-54.12,15.64-14.75,35.55-24.24,54.63-26.03,14.07-1.32,26.53,2.1,34.71,9.43l.8-1.71c1.28-2.75,3.92-4.64,6.9-4.92l39.01-3.66c2.87-.27,5.52.96,7.11,3.29,1.6,2.36,1.77,5.46.43,8.1l-.69,1.36c-6.68,13.15-19.1,37.64-19.39,47.7-.07,2.4.5,4.4,1.52,5.35.77.73,2.06,1.01,3.83.84,13.37-1.25,26.54-17.79,35.26-28.74.19-.23.38-.46.59-.67l16.29-37.03c1.25-2.84,3.92-4.79,6.97-5.08l38.54-3.62c2.8-.27,5.43.92,7.02,3.17.56.79.95,1.65,1.18,2.55,9.56-6.54,22.98-13.58,37.91-14.98,7.75-.73,22.07-.72,30.87,7.53,4.66,4.37,7.02,10.48,6.81,17.68-.26,9.13-5.32,16.81-9.77,23.6-1.43,2.18-2.78,4.23-3.94,6.26-5.15,9.02-4.47,13.04-3.82,13.74.63.68,4.46,1.64,13.57-2.65,11-5.19,21.06-17.97,27.71-26.42.06-.08.12-.15.19-.23l8.63-19.22-15.66,1.47,9.99-21.38,2.35-.56c23.92-5.72,50.39-24.54,61.57-43.79l1.29-2.23,27.52-2.58-18.51,41.5,18.28-1.72-10.65,22.14-17.31,1.62-12.65,27.65c-2.19,4.88-3.55,8.08-3.66,12.01-.04,1.36.17,3.22,1.4,4.37,1.37,1.29,4.1,1.81,7.67,1.47,12.16-1.14,23.28-13.08,32.56-24.6,6.75-8.7,14.14-20.01,20.24-30.9-5.03-3.96-9.21-10.51-9.02-17.26.32-11.34,8.74-20.03,20.46-21.12,5.52-.52,11.17,1.37,15.1,5.05,3.47,3.25,5.31,7.6,5.18,12.24l-.04.52-.28,2.11c.77-.02,1.74-.07,2.99-.19l56.98-5.35,10.2,12.91-3.35,3.14c-12.01,11.28-25.11,31.92-25.48,44.66-.09,3.14.45,5.43,1.53,6.44,1.08,1.01,3.16,1.05,4.72.91,13.62-1.28,28.41-20.04,35.79-29.54,6.26-14.55,12.98-29.64,17.55-39.8l1.19-2.66,59.92-5.62-5,10.84c-3.84,8.29-11.83,25.52-17.04,38.61l-.78,2.06c-1.83,4.78-3.9,10.2-3.96,12.13-.04,1.37.25,2.36.86,2.93.94.88,2.94,1.25,5.48,1.02,9.42-.88,21.17-11.77,27.35-25.32.19-.4,15.5-32.65,19.39-42.05l1.15-2.78,59.6-5.59-35.12,78.61c14.62-10.77,27.69-23.9,39.67-39.79l1.69-2.25,22.11,2.22-4.53,6.89c-23.13,35.23-42.74,50.5-74.89,68.81-24.59,56.6-60.79,95-92.52,97.97-1.4.13-2.77.2-4.12.2ZM1083.36,124.96l8.65,4.67-10.21,32.03-2.09.9c-28.85,12.5-77.39,37.98-78.25,68.22-.16,5.6,1.53,10.22,4.9,13.38,4.02,3.76,10.31,5.45,17.73,4.76,27.98-2.63,62.11-40.2,84.93-93.51l.66-1.55,1.47-.83c29.32-16.59,47.77-30.27,68.13-59.36-16.04,20.73-34.01,36.89-54.83,49.35l-13.59,8.13,41.63-93.19-36.59,3.43c-5.16,11.81-17.79,38.42-18.37,39.65-7.75,17.03-22.36,29.83-35.48,31.06-7.01.66-11.08-1.63-13.25-3.67-1.92-1.8-4.17-5.08-4.02-10.51.1-3.62,1.99-8.57,4.61-15.41l.81-2.11c4.44-11.15,10.77-25.06,15-34.24l-36.83,3.46c-6.16,13.74-11.85,26.68-16.54,37.59l-.25.59-.39.5c-12.97,16.71-27.17,32.37-43.15,33.87-5.24.49-9.44-.71-12.49-3.57-3.29-3.08-4.86-7.79-4.68-14.02.42-14.67,12.71-35.2,25.36-48.42l-1.22-1.54-51.57,4.84c-6.6.62-10.19.02-12.43-2.07-1.32-1.23-2.01-2.89-1.96-4.68l.04-.52.75-5.64c0-1.7-.69-3.19-2.02-4.44-1.84-1.73-4.65-2.64-7.32-2.39-6.64.62-11.22,5.23-11.4,11.46-.11,3.71,3.66,8.95,7.6,10.56l5.12,2.1-2.61,4.88c-6.82,12.76-15.37,26.07-23.48,36.52-10.64,13.22-23.6,26.87-39.47,28.36-6.65.63-11.85-.77-15.44-4.13-3.12-2.92-4.7-7.06-4.56-11.95.18-6.12,2.3-10.85,4.55-15.85l15.07-32.94,17.43-1.64.53-1.1-17.7,1.66,18.51-41.5-5.41.51c-14.28,22.66-42.26,39.72-64.17,45.66l-.57,1.23,15.36-1.44-16.46,36.66-.75.66c-7.23,9.19-18.13,23-31.21,29.16-14.71,6.93-21.81,4.04-25.18.39-3.4-3.68-5.74-11.09,2.48-25.49,1.31-2.3,2.81-4.58,4.27-6.79,4.09-6.22,7.95-12.1,8.13-18.39.13-4.38-1.07-7.68-3.65-10.1-4.34-4.07-12.76-5.84-23.09-4.87-14.66,1.38-27.97,9.29-36.56,15.68-3.06,2.28-7.02,2.26-9.85-.03-1.89-1.53-2.87-3.76-2.83-6.09l-34.51,3.24-16.99,38.61-1.03.7c-9.77,12.27-24.48,30.64-42,32.29-5.91.55-9.57-1.6-11.6-3.5-3.17-2.97-4.83-7.56-4.67-12.93.31-10.95,9.6-30.45,19.4-49.82l-34.04,3.19-1.45,3.12c-1.2,2.59-3.59,4.4-6.38,4.84-2.61.41-5.22-.48-6.97-2.38-5.84-6.32-16.49-9.42-28.49-8.29-33.2,3.12-71.12,33.92-72.17,70.48-.32,11.13,2.53,19.6,8.47,25.16,6.17,5.78,15.52,8.26,27.06,7.18,18.87-1.77,38.11-18.67,46.65-33.68l1.86-3.27,8.52,2.05-.12,4.06c-.24,8.23,1.81,14.61,5.91,18.45,3.73,3.49,9.36,5,16.29,4.35,15.84-1.49,32.97-12.22,50.9-31.91l8.27,5.38-7.79,17.7,36.37-3.41,21.3-48.13c3.94-9.05,18.91-38.87,45.41-41.35,4.67-.43,9.03.89,11.97,3.65,2.55,2.39,3.89,5.74,3.78,9.44-.19,6.64-5.21,13.87-11.03,22.24-6.87,9.88-14.65,21.09-14.96,31.99-.17,5.82,1.46,10.38,4.83,13.54,4.31,4.04,11.4,5.81,19.96,5.01,15.65-1.47,35.59-14.97,56.16-38.03l11.16-12.51-2.49,16.58c-.18,1.23-.29,2.41-.33,3.52-.23,8.06,1.72,14.08,5.79,17.9,4.28,4.01,11.24,5.7,20.12,4.86,36.6-3.44,69.25-45.48,81.59-63.39l.14-.2c5.58-7.31,12.21-17.99,19.19-30.89l2.37-4.37,4.39,2.34c9.23,4.93,17.16,7.57,26.5,8.83l10.75,1.45-8.08,7.23c-12.99,11.62-27.16,30.79-27.58,45.4-.19,6.74,1.78,12.25,5.7,15.92,4.56,4.27,11.67,6.09,20.56,5.26,21.7-2.04,44.06-22.54,58.99-39.38l11.44-12.9-2.76,17.02c-.34,2.1-.54,4.1-.59,5.94-.18,6.32,1.74,11.69,5.42,15.14,4.16,3.9,10.46,5.48,18.71,4.7,27.13-2.55,48.18-23.86,58.3-36.33ZM1042.77,229.42c-2.88,0-5.7-1.11-7.85-3.13-2.74-2.57-4.18-6.32-4.06-10.58.48-16.66,16.08-34.17,41.74-46.83l10.1-4.99-3.08,10.84c-6.43,22.62-17.14,52.9-35.81,54.65h0c-.35.03-.7.05-1.05.05ZM1066.37,183.76c-18.25,11.46-25.28,23.76-25.52,32.23-.04,1.36.28,2.42.9,3,.33.31.74.46,1.12.42,4.67-.44,13.53-5.92,23.5-35.66ZM488.05,186c-4.93,0-9.25-1.62-12.58-4.74-4.25-3.98-6.48-10.09-6.28-17.21.24-8.51,3.21-17.33,8.59-25.52,8.04-12.73,19.77-21.31,30.58-22.33,5.84-.54,10.94,1.05,14.74,4.61,4.28,4.02,6.53,10.24,6.32,17.54-.6,20.96-21.09,45.84-39.16,47.54-.75.07-1.49.11-2.22.11ZM489.33,175.94l.47,4.98-.47-4.98c12.02-1.13,29.61-20.9,30.1-37.87.13-4.39-1-7.93-3.16-9.95-1.68-1.57-4.03-2.23-6.97-1.96-7.67.72-16.74,7.7-23.11,17.78-4.41,6.71-6.81,13.74-7,20.4-.12,4.21.99,7.63,3.12,9.62,1.7,1.59,4.06,2.25,7.02,1.98Z"/>
            </g>
          </g>
        </g>
        <g>
          <g class="cls-24">
            <g class="cls-6">
              <polygon class="cls-23" points="1244.91 159.18 -30.3 278.88 -30.75 294.75 1244.46 175.06 1244.91 159.18"/>
            </g>
            <g class="cls-14">
              <polygon class="cls-23" points="1245.22 142.81 -29.99 262.5 -30.29 273.19 1244.92 153.5 1245.22 142.81"/>
            </g>
            <g class="cls-16">
              <polygon class="cls-23" points="1245.84 121.07 -29.37 240.76 -29.67 251.46 1245.54 131.76 1245.84 121.07"/>
            </g>
            <g class="cls-8">
              <polygon class="cls-23" points="1246.54 96.85 -28.67 216.54 -28.84 222.44 1246.37 102.75 1246.54 96.85"/>
            </g>
            <polygon class="cls-19" points="1244.01 185.21 -31.2 304.9 -31.28 307.86 1243.92 188.17 1244.01 185.21"/>
            <polygon class="cls-19" points="1246.78 88.29 -28.43 207.98 -28.51 210.94 1246.7 91.25 1246.78 88.29"/>
            <polygon class="cls-19" points="1247.61 59.35 -27.6 179.04 -27.69 182 1247.52 62.31 1247.61 59.35"/>
          </g>
          <g class="cls-10">
            <g class="cls-20">
              <polygon class="cls-23" points="1342.21 150.06 67 269.75 66.55 285.62 1341.75 165.93 1342.21 150.06"/>
            </g>
            <g class="cls-15">
              <polygon class="cls-23" points="1342.52 133.68 67.31 253.37 67 264.07 1342.21 144.37 1342.52 133.68"/>
            </g>
            <g class="cls-5">
              <polygon class="cls-23" points="1343.14 111.94 67.93 231.63 67.63 242.33 1342.83 122.64 1343.14 111.94"/>
            </g>
            <g class="cls-3">
              <polygon class="cls-23" points="1343.83 87.72 68.62 207.41 68.46 213.31 1343.66 93.62 1343.83 87.72"/>
            </g>
            <polygon class="cls-19" points="1341.31 176.08 66.1 295.78 66.01 298.74 1341.22 179.04 1341.31 176.08"/>
            <polygon class="cls-19" points="1344.08 79.16 68.87 198.86 68.78 201.82 1343.99 82.12 1344.08 79.16"/>
            <polygon class="cls-19" points="1344.91 50.22 69.7 169.92 69.61 172.87 1344.82 53.18 1344.91 50.22"/>
          </g>
        </g>
      </g>
      <g>
        <g>
          <g>
            <path class="cls-26" d="M619.46,365.12c-1.5,15.76-8.24,33.61-23.68,42.48-33.14,19.02-47.88-26.23-86.88-23.26,12.26-2.52,23.69-7.73,34.61-14,45.19-25.94,62.43-63.82,48.21-93.12-20.56-42.36-101.4-34.33-189.51,16.25-111.84,64.19-140.82,115.58-125.4,147.35,14.91,30.71,53.29,24.48,81.15,8.49,34.27-19.67,55.31-55.67,53.01-88.19-2.84,7.05-11.67,16.63-21.84,22.46-12.8,7.35-25.92,8.11-31.74-3.9-13.02-26.83,33.81-57.32,54.52-69.2,53.47-30.69,108.46-37.43,123.71-6.01,7.88,16.24-.4,40.85-31.28,58.57-12.05,6.92-25.67,11.58-37.11,11.82-.66-32.12,1.97-53.48,20.65-75.49-5.75,1.05-11.54,3.01-16.81,6.04-21.84,12.54-35.01,34.99-50.19,116.82-12.17,65.2-27.77,93.57-50.74,106.75-15.06,8.65-29.2,7.28-34.86-4.37-3.43-7.06-2.71-16.5,1.63-24.41-7.63,2.12-15.13,5.53-22.29,9.63-33.51,19.24-45.9,60.19-31.16,90.55,16.28,33.54,56.51,42.04,101.32,16.32,53.1-30.47,77.96-95.3,81.96-214.04,18.35-2.86,29.49,15.12,36,28.54,7.71,15.89,7.27,32.84,17.04,52.96,11.82,24.36,38.43,32.56,65.17,17.21,47.07-27.02,56.29-92.34,38.3-129.4-1.2-2.47-2.78-4.73-3.8-6.84Z"/>
            <path class="cls-26" d="M334.73,636.71c-6.97,0-13.65-.95-19.91-2.89-15.9-4.9-28.29-15.71-35.84-31.26-16.33-33.65-1.45-77.2,33.17-97.07,8.06-4.62,15.94-8.03,23.43-10.11,1.94-.54,4.01.13,5.26,1.71,1.25,1.58,1.43,3.75.46,5.51-3.59,6.54-4.19,14.32-1.52,19.82,1.59,3.28,4.06,5.45,7.35,6.46,5.42,1.67,12.9.12,20.52-4.25,23.1-13.26,37.09-43.19,48.31-103.33,15.8-85.18,30.11-107.32,52.62-120.24,5.54-3.18,11.73-5.41,18.4-6.62,2.08-.38,4.17.59,5.23,2.42,1.06,1.83.85,4.12-.52,5.74-16.32,19.22-19.76,38.03-19.54,66.86,9.1-1.19,19.64-4.99,29.7-10.76,29.3-16.82,35.71-38.77,29.27-52.05-3.61-7.43-9.98-12.6-18.95-15.36-22.79-7.02-60.25,1.99-97.77,23.53-15.22,8.73-63.97,39.06-52.51,62.68,1.51,3.12,3.61,5.05,6.4,5.91,4.59,1.41,11.28-.11,18.36-4.17,9.83-5.64,17.48-14.51,19.69-20,.87-2.16,3.11-3.44,5.42-3.07,2.3.36,4.04,2.26,4.21,4.59,2.49,35.08-19.82,72.4-55.51,92.88-22,12.63-45.38,17.01-62.55,11.71-11.5-3.55-20.11-11.07-25.59-22.35-6.37-13.13-8.85-35.38,15.53-66.77,21.29-27.4,58.93-56.71,111.88-87.1,64.52-37.03,125.84-52.11,164.04-40.34,15.39,4.74,26.31,13.57,32.46,26.24,7.7,15.88,7.05,34.43-1.85,52.24-9,18.01-25.73,34.4-48.37,47.4-5.34,3.06-10.39,5.65-15.27,7.79,8.85,3.24,16.38,8.39,23.37,13.17,13.89,9.51,23.93,16.37,39.18,7.62,16.72-9.6,20.39-30.2,21.19-38.61.21-2.23,1.88-4.05,4.09-4.45,2.2-.4,4.41.72,5.39,2.74.4.83.97,1.79,1.56,2.8.71,1.21,1.53,2.58,2.24,4.05,9.64,19.86,11.74,46.72,5.6,71.84-6.91,28.29-23.21,51.05-45.92,64.08-14.42,8.28-29.78,10.55-43.25,6.4-12.44-3.83-22.7-12.98-28.9-25.76-5.41-11.15-7.86-21.5-10.02-30.64-1.87-7.89-3.63-15.34-7.01-22.32-8.29-17.07-16.85-25.46-26.67-25.99-2.25,58.25-9.7,103.16-22.73,137.18-13.59,35.47-33.73,60.49-61.57,76.47-18.04,10.35-36.11,15.67-52.56,15.67ZM328.73,508.38c-3.78,1.6-7.66,3.53-11.6,5.79-30.16,17.31-43.24,55.01-29.15,84.03,6.31,12.99,16.61,22.01,29.79,26.07,18.38,5.66,41.3,1.44,64.55-11.91,51.74-29.7,75.5-92.46,79.46-209.87.08-2.4,1.86-4.4,4.23-4.77,24.25-3.78,37.06,22.62,41.26,31.29,3.87,7.97,5.75,15.94,7.75,24.38,2.14,9.05,4.36,18.42,9.29,28.58,5.05,10.41,12.95,17.52,22.85,20.57,10.79,3.33,23.34,1.37,35.33-5.52,20.31-11.65,34.93-32.17,41.18-57.78,4.95-20.28,4.09-41.65-2.16-58.66-3.27,10.84-9.88,23.68-23.22,31.34-20.7,11.88-35.5,1.75-49.81-8.04-11.35-7.77-23.08-15.8-39.18-14.57-2.62.21-4.96-1.68-5.33-4.29-.37-2.61,1.36-5.06,3.94-5.59,10.33-2.13,20.86-6.4,33.13-13.44,41.28-23.69,59.84-58.49,46.2-86.6-4.89-10.08-13.78-17.16-26.41-21.05-35.07-10.81-94.88,4.31-156.11,39.45-51.82,29.74-88.48,58.19-108.96,84.56-16.81,21.63-21.8,41.09-14.43,56.27,4.22,8.69,10.79,14.47,19.54,17.16,14.57,4.49,34.99.44,54.62-10.83,26.45-15.18,45.24-41.35,49.66-67.41-3.99,3.94-8.67,7.57-13.52,10.35-9.75,5.6-18.84,7.35-26.28,5.05-5.43-1.67-9.74-5.51-12.45-11.1-14.29-29.45,29.28-60.09,56.53-75.72,40.45-23.21,79.96-32.34,105.69-24.41,11.73,3.61,20.14,10.53,25,20.56,8.41,17.32,1.58,45.08-33.29,65.09-13.39,7.68-27.78,12.23-39.49,12.48-1.33.02-2.61-.47-3.57-1.39s-1.51-2.18-1.54-3.51c-.56-27.26,1.49-47.22,12.54-65.89-.41.22-.81.44-1.21.67-19.84,11.39-32.68,32.05-47.76,113.39-11.82,63.37-27.23,95.29-53.17,110.18-10.16,5.83-20.26,7.66-28.44,5.14-5.96-1.84-10.59-5.87-13.4-11.65-2.63-5.42-3.3-11.95-2.07-18.41Z"/>
            <path class="cls-26" d="M920.8,335.36c15.17-1.42,33.22-13.41,33.71-30.37.48-16.96-16.26-24.95-31.8-23.49-15.17,1.42-33.22,13.41-33.71,30.37-.5,17.33,16.26,24.95,31.8,23.49Z"/>
            <g>
              <path class="cls-26" d="M1197.24,371.56c-13.01,16.3-28.72,36.52-48.7,38.4-9.6.17-11.99-6.6-11.86-11.02.17-5.9,2.94-12.41,4.56-17.34,0,0,61.2-140.32,61.57-140.36l-57.35,5.38-43.8,99.34c-8.47-13.54-25.37-16-41.65-14.48-34.17,3.21-70.11,28.66-84.74,61.32-23.17,30.48-35.83,36.77-47.98,37.91-7.77.73-13.18-3.54-12.95-11.65.18-6.27,2.58-12.74,5.35-19.25l21.33-49.07-57.35,5.38-20.57,47.28c-12.57,15.82-28.87,36.05-47.17,37.77-9.99.94-13.1-6.49-12.9-13.5.44-15.48,20.31-52.28,27.36-66.55l-54.76,5.14-5.9,12.69c-8.47-13.55-26.06-17.78-42.34-16.25-43.66,4.1-90.2,44.5-91.5,89.85-.96,33.55,20.79,47.32,48.9,44.68,24.42-2.29,49.01-23.35,60.27-43.16l1.1.26c-.65,22.86,11.91,35.28,32.99,33.3,24.85-2.33,49.23-21.33,71.68-48.13-.16,1.45-.28,2.89-.32,4.29-.67,23.6,13.73,35.85,38.15,33.56,29.99-2.81,58.24-28.83,79.82-55.65-.78,33.27,20.9,46.93,48.91,44.3,24.42-2.29,50.49-23.49,61.75-43.3l1.1.26c-.65,22.86,10.43,35.42,31.51,33.44,34.78-3.26,72.1-43.9,98.69-83.54l-13.25-1.33ZM720.1,450.91c-12.21,1.15-18.97-7.78-18.62-19.95.24-8.48,3.1-17.94,9.27-27.34,8.89-14.07,21.32-22.96,32.05-23.97,12.21-1.15,18.97,7.78,18.61,20.32-.66,23.23-23.92,49.31-41.31,50.94ZM1052.7,419.69c-12.21,1.15-18.97-7.78-18.62-19.95.24-8.48,3.1-17.94,9.27-27.34,8.89-14.07,21.32-22.96,32.05-23.97,12.21-1.15,18.97,7.78,18.61,20.32-.66,23.23-23.92,49.31-41.31,50.94Z"/>
              <path class="cls-26" d="M678.13,502.56c-13.8,0-25.33-4.03-33.65-11.82-9.34-8.75-14.03-22.01-13.56-38.33.65-22.69,11.81-45.38,31.43-63.89,18.5-17.46,42.04-28.68,64.6-30.8,17.19-1.61,32.12,2.77,41.62,11.91l2.55-5.48c.75-1.61,2.3-2.7,4.07-2.87l54.76-5.14c1.81-.17,3.56.65,4.59,2.14,1.03,1.49,1.17,3.42.36,5.05-.98,1.99-2.21,4.42-3.61,7.16-8,15.76-22.89,45.09-23.24,57.31-.09,3.18.68,5.77,2.11,7.11,1.13,1.06,2.92,1.49,5.32,1.26,16.22-1.52,31.82-20.93,43.31-35.38l20.31-46.68c.73-1.67,2.3-2.81,4.12-2.98l57.35-5.38c1.76-.16,3.48.61,4.52,2.04,1.04,1.43,1.24,3.31.54,4.93l-21.33,49.07c-2.85,6.7-4.79,12.24-4.93,17.4-.05,1.59.2,3.77,1.63,5.11,1.23,1.16,3.31,1.66,5.85,1.42,8.88-.83,20.35-4.34,44.13-35.51,15.3-33.57,52.45-60.33,88.59-63.72,17.9-1.68,31.8,1.79,40.79,10.08l40.55-91.98c.73-1.66,2.3-2.79,4.11-2.96l57.34-5.38h0c2.75-.27,5.19,1.76,5.45,4.51.1,1.07-.15,2.1-.65,2.97-2.56,5.26-44.88,102.15-61.23,139.64-.32.95-.67,1.96-1.04,3-1.44,4.1-3.08,8.76-3.19,12.69-.02.64.03,2.83,1.48,4.29,1.06,1.07,2.8,1.62,5.11,1.59,17.33-1.75,32.21-20.41,44.17-35.4l.89-1.12c1.06-1.33,2.72-2.02,4.41-1.86l13.25,1.33c1.75.18,3.28,1.26,4.02,2.85.75,1.59.61,3.46-.37,4.92-20.36,30.34-60.73,81.82-102.38,85.73-11.04,1.03-20.26-1.6-26.69-7.62-4.67-4.38-7.81-10.48-9.31-17.99-13.57,17-35.9,33.09-58.38,35.2-16.93,1.59-31.02-2.36-40.73-11.41-6.71-6.25-11.03-14.82-12.78-25.17-25.89,29.55-51.16,45.66-75.22,47.92-13.94,1.31-25.36-1.81-33.05-9.01-5.47-5.13-8.89-12.2-10.1-20.75-22.82,24.59-45.11,38.04-66.36,40.03-11.48,1.08-21.15-1.72-27.95-8.1-4.66-4.37-7.83-10.27-9.4-17.4-13.45,17.23-35.01,33.03-57.02,35.09-2.45.23-4.83.34-7.16.34ZM733.89,367.4c-1.95,0-3.96.09-6.01.29-40.01,3.76-85.7,40.91-86.96,85.01-.39,13.57,3.11,23.91,10.41,30.74,7.56,7.09,18.98,10.14,33.03,8.82,22.83-2.14,46.09-22.55,56.39-40.66,1.1-1.94,3.35-2.91,5.52-2.39l1.1.26c2.3.55,3.9,2.64,3.83,5-.29,10.1,2.25,17.97,7.35,22.74,4.66,4.36,11.63,6.24,20.18,5.44,21.22-1.99,44.21-17.59,68.31-46.36,1.42-1.69,3.77-2.25,5.79-1.39,2.03.86,3.25,2.95,3.01,5.14-.17,1.54-.26,2.78-.29,3.89-.28,9.78,2.21,17.21,7.41,22.08,5.54,5.19,14.28,7.38,25.27,6.35,23.42-2.2,49.84-20.8,76.39-53.81,1.34-1.67,3.6-2.3,5.61-1.56,2.01.74,3.33,2.67,3.28,4.81-.32,13.43,3.21,23.67,10.47,30.44,7.56,7.05,18.97,10.08,32.97,8.77,22.93-2.15,47.43-22.43,57.87-40.8,1.1-1.94,3.35-2.91,5.52-2.39l1.1.26c2.3.55,3.9,2.64,3.83,5-.3,10.62,2.16,18.7,7.14,23.36,4.34,4.06,10.7,5.73,18.91,4.96,26.11-2.45,58.75-29.45,90.27-74.43l-2.14-.22c-13.05,16.35-29.24,36.14-50.44,38.13-.13.01-.25.02-.38.02-6.59.12-10.46-2.42-12.58-4.56-2.9-2.93-4.49-7.16-4.36-11.61.16-5.5,2.15-11.17,3.76-15.73.37-1.06.73-2.07,1.04-3.03.05-.15.1-.3.17-.44,0,0,15.3-35.08,30.65-70.17,7.68-17.55,15.36-35.09,21.15-48.26,2.48-5.63,4.61-10.46,6.25-14.15l-45.85,4.3-42.61,96.66c-.75,1.69-2.37,2.84-4.22,2.97-1.84.12-3.62-.77-4.6-2.34-6.12-9.79-18.55-13.88-36.94-12.15-32.96,3.09-66.88,27.65-80.64,58.39-.16.35-.35.68-.58.98-23.88,31.41-37.41,38.54-51.49,39.86-5.43.51-10.27-.94-13.63-4.08-2.29-2.15-4.98-6.09-4.79-12.69.19-6.73,2.44-13.29,5.74-21.07l17.97-41.34-45.98,4.32-19.39,44.57c-.17.4-.4.77-.67,1.12-12.64,15.91-29.96,37.69-50.61,39.63-6.69.63-10.81-1.79-13.09-3.92-3.57-3.35-5.45-8.57-5.27-14.7.38-13.16,11.9-37.06,23.82-60.58l-42.9,4.03-4.69,10.09c-.77,1.66-2.4,2.77-4.23,2.88-1.82.12-3.58-.78-4.55-2.34-5.68-9.09-17.26-14.21-31.62-14.21ZM1148.55,409.96h0,0ZM1203.3,246.21h-.01s0,0,.01,0ZM1203.32,246.21h-.01s0,0,.01,0ZM1204.88,245.79c-.48.22-1.01.36-1.56.42.58-.06,1.1-.21,1.56-.42ZM1207.04,243.9c-.27.42-.6.81-.98,1.13.42-.36.75-.75.98-1.13ZM718.01,456.01c-5.64,0-10.56-1.84-14.35-5.4-4.87-4.56-7.42-11.59-7.18-19.79.28-9.97,3.77-20.33,10.09-29.94,9.44-14.95,23.16-25.02,35.76-26.2,6.68-.63,12.5,1.19,16.84,5.25,4.91,4.6,7.48,11.77,7.24,20.19-.76,26.58-26.47,53.96-45.84,55.78h0c-.86.08-1.71.12-2.55.12ZM720.1,450.91h0,0ZM744.87,384.55c-.52,0-1.06.03-1.61.08-9.43.89-20.54,9.39-28.29,21.66-5.34,8.14-8.27,16.7-8.5,24.82-.15,5.3,1.28,9.64,4.02,12.21,2.23,2.09,5.31,2.97,9.13,2.61h0c14.69-1.38,36.19-25.46,36.78-46.11.16-5.52-1.29-9.99-4.08-12.6-1.89-1.77-4.39-2.67-7.45-2.67ZM1050.62,424.79c-5.64,0-10.56-1.84-14.35-5.39-4.87-4.56-7.42-11.59-7.18-19.79.29-9.97,3.77-20.33,10.09-29.94,9.44-14.95,23.16-25.02,35.76-26.2,6.68-.63,12.5,1.19,16.84,5.25,4.91,4.6,7.48,11.77,7.24,20.19-.76,26.58-26.47,53.96-45.84,55.78h0c-.86.08-1.71.12-2.55.12ZM1052.7,419.69h0,0ZM1077.48,353.33c-.52,0-1.06.03-1.61.08-9.43.89-20.54,9.39-28.29,21.66-5.34,8.14-8.27,16.7-8.5,24.82-.15,5.3,1.28,9.64,4.02,12.21,2.23,2.09,5.31,2.97,9.13,2.61h0c14.69-1.38,36.19-25.46,36.78-46.11.16-5.52-1.29-9.99-4.08-12.6-1.89-1.77-4.4-2.67-7.45-2.67Z"/>
            </g>
            <path class="cls-26" d="M334.73,636.71c-6.97,0-13.65-.95-19.91-2.89-15.9-4.9-28.29-15.71-35.84-31.26-16.33-33.65-1.45-77.2,33.17-97.07,8.06-4.62,15.94-8.03,23.43-10.11,1.94-.54,4.01.13,5.26,1.71,1.25,1.58,1.43,3.75.46,5.51-3.59,6.54-4.19,14.32-1.52,19.82,1.59,3.28,4.06,5.45,7.35,6.46,5.42,1.67,12.9.12,20.52-4.25,23.1-13.26,37.09-43.19,48.31-103.33,15.8-85.18,30.11-107.32,52.62-120.24,5.54-3.18,11.73-5.41,18.4-6.62,2.08-.38,4.17.59,5.23,2.42,1.06,1.83.85,4.12-.52,5.74-16.32,19.22-19.76,38.03-19.54,66.86,9.1-1.19,19.64-4.99,29.7-10.76,29.3-16.82,35.71-38.77,29.27-52.05-3.61-7.43-9.98-12.6-18.95-15.36-22.79-7.02-60.25,1.99-97.77,23.53-15.22,8.73-63.97,39.06-52.51,62.68,1.51,3.12,3.61,5.05,6.4,5.91,4.59,1.41,11.28-.11,18.36-4.17,9.83-5.64,17.48-14.51,19.69-20,.87-2.16,3.11-3.44,5.42-3.07,2.3.36,4.04,2.26,4.21,4.59,2.49,35.08-19.82,72.4-55.51,92.88-22,12.63-45.38,17.01-62.55,11.71-11.5-3.55-20.11-11.07-25.59-22.35-6.37-13.13-8.85-35.38,15.53-66.77,21.29-27.4,58.93-56.71,111.88-87.1,64.52-37.03,125.84-52.11,164.04-40.34,15.39,4.74,26.31,13.57,32.46,26.24,7.7,15.88,7.05,34.43-1.85,52.24-9,18.01-25.73,34.4-48.37,47.4-5.34,3.06-10.39,5.65-15.27,7.79,8.85,3.24,16.38,8.39,23.37,13.17,13.89,9.51,23.93,16.37,39.18,7.62,16.72-9.6,20.39-30.2,21.19-38.61.21-2.23,1.88-4.05,4.09-4.45,2.2-.4,4.41.72,5.39,2.74.4.83.97,1.79,1.56,2.8.71,1.21,1.53,2.58,2.24,4.05,9.64,19.86,11.74,46.72,5.6,71.84-6.91,28.29-23.21,51.05-45.92,64.08-14.42,8.28-29.78,10.55-43.25,6.4-12.44-3.83-22.7-12.98-28.9-25.76-5.41-11.15-7.86-21.5-10.02-30.64-1.87-7.89-3.63-15.34-7.01-22.32-8.29-17.07-16.85-25.46-26.67-25.99-2.25,58.25-9.7,103.16-22.73,137.18-13.59,35.47-33.73,60.49-61.57,76.47-18.04,10.35-36.11,15.67-52.56,15.67ZM328.73,508.38c-3.78,1.6-7.66,3.53-11.6,5.79-30.16,17.31-43.24,55.01-29.15,84.03,6.31,12.99,16.61,22.01,29.79,26.07,18.38,5.66,41.3,1.44,64.55-11.91,51.74-29.7,75.5-92.46,79.46-209.87.08-2.4,1.86-4.4,4.23-4.77,24.25-3.78,37.06,22.62,41.26,31.29,3.87,7.97,5.75,15.94,7.75,24.38,2.14,9.05,4.36,18.42,9.29,28.58,5.05,10.41,12.95,17.52,22.85,20.57,10.79,3.33,23.34,1.37,35.33-5.52,20.31-11.65,34.93-32.17,41.18-57.78,4.95-20.28,4.09-41.65-2.16-58.66-3.27,10.84-9.88,23.68-23.22,31.34-20.7,11.88-35.5,1.75-49.81-8.04-11.35-7.77-23.08-15.8-39.18-14.57-2.62.21-4.96-1.68-5.33-4.29-.37-2.61,1.36-5.06,3.94-5.59,10.33-2.13,20.86-6.4,33.13-13.44,41.28-23.69,59.84-58.49,46.2-86.6-4.89-10.08-13.78-17.16-26.41-21.05-35.07-10.81-94.88,4.31-156.11,39.45-51.82,29.74-88.48,58.19-108.96,84.56-16.81,21.63-21.8,41.09-14.43,56.27,4.22,8.69,10.79,14.47,19.54,17.16,14.57,4.49,34.99.44,54.62-10.83,26.45-15.18,45.24-41.35,49.66-67.41-3.99,3.94-8.67,7.57-13.52,10.35-9.75,5.6-18.84,7.35-26.28,5.05-5.43-1.67-9.74-5.51-12.45-11.1-14.29-29.45,29.28-60.09,56.53-75.72,40.45-23.21,79.96-32.34,105.69-24.41,11.73,3.61,20.14,10.53,25,20.56,8.41,17.32,1.58,45.08-33.29,65.09-13.39,7.68-27.78,12.23-39.49,12.48-1.33.02-2.61-.47-3.57-1.39s-1.51-2.18-1.54-3.51c-.56-27.26,1.49-47.22,12.54-65.89-.41.22-.81.44-1.21.67-19.84,11.39-32.68,32.05-47.76,113.39-11.82,63.37-27.23,95.29-53.17,110.18-10.16,5.83-20.26,7.66-28.44,5.14-5.96-1.84-10.59-5.87-13.4-11.65-2.63-5.42-3.3-11.95-2.07-18.41Z"/>
            <path class="cls-26" d="M334.73,636.71c-6.97,0-13.65-.95-19.91-2.89-15.9-4.9-28.29-15.71-35.84-31.26-16.33-33.65-1.45-77.2,33.17-97.07,8.06-4.62,15.94-8.03,23.43-10.11,1.94-.54,4.01.13,5.26,1.71,1.25,1.58,1.43,3.75.46,5.51-3.59,6.54-4.19,14.32-1.52,19.82,1.59,3.28,4.06,5.45,7.35,6.46,5.42,1.67,12.9.12,20.52-4.25,23.1-13.26,37.09-43.19,48.31-103.33,15.8-85.18,30.11-107.32,52.62-120.24,5.54-3.18,11.73-5.41,18.4-6.62,2.08-.38,4.17.59,5.23,2.42,1.06,1.83.85,4.12-.52,5.74-16.32,19.22-19.76,38.03-19.54,66.86,9.1-1.19,19.64-4.99,29.7-10.76,29.3-16.82,35.71-38.77,29.27-52.05-3.61-7.43-9.98-12.6-18.95-15.36-22.79-7.02-60.25,1.99-97.77,23.53-15.22,8.73-63.97,39.06-52.51,62.68,1.51,3.12,3.61,5.05,6.4,5.91,4.59,1.41,11.28-.11,18.36-4.17,9.83-5.64,17.48-14.51,19.69-20,.87-2.16,3.11-3.44,5.42-3.07,2.3.36,4.04,2.26,4.21,4.59,2.49,35.08-19.82,72.4-55.51,92.88-22,12.63-45.38,17.01-62.55,11.71-11.5-3.55-20.11-11.07-25.59-22.35-6.37-13.13-8.85-35.38,15.53-66.77,21.29-27.4,58.93-56.71,111.88-87.1,64.52-37.03,125.84-52.11,164.04-40.34,15.39,4.74,26.31,13.57,32.46,26.24,7.7,15.88,7.05,34.43-1.85,52.24-9,18.01-25.73,34.4-48.37,47.4-5.34,3.06-10.39,5.65-15.27,7.79,8.85,3.24,16.38,8.39,23.37,13.17,13.89,9.51,23.93,16.37,39.18,7.62,16.72-9.6,20.39-30.2,21.19-38.61.21-2.23,1.88-4.05,4.09-4.45,2.2-.4,4.41.72,5.39,2.74.4.83.97,1.79,1.56,2.8.71,1.21,1.53,2.58,2.24,4.05,9.64,19.86,11.74,46.72,5.6,71.84-6.91,28.29-23.21,51.05-45.92,64.08-14.42,8.28-29.78,10.55-43.25,6.4-12.44-3.83-22.7-12.98-28.9-25.76-5.41-11.15-7.86-21.5-10.02-30.64-1.87-7.89-3.63-15.34-7.01-22.32-8.29-17.07-16.85-25.46-26.67-25.99-2.25,58.25-9.7,103.16-22.73,137.18-13.59,35.47-33.73,60.49-61.57,76.47-18.04,10.35-36.11,15.67-52.56,15.67ZM328.73,508.38c-3.78,1.6-7.66,3.53-11.6,5.79-30.16,17.31-43.24,55.01-29.15,84.03,6.31,12.99,16.61,22.01,29.79,26.07,18.38,5.66,41.3,1.44,64.55-11.91,51.74-29.7,75.5-92.46,79.46-209.87.08-2.4,1.86-4.4,4.23-4.77,24.25-3.78,37.06,22.62,41.26,31.29,3.87,7.97,5.75,15.94,7.75,24.38,2.14,9.05,4.36,18.42,9.29,28.58,5.05,10.41,12.95,17.52,22.85,20.57,10.79,3.33,23.34,1.37,35.33-5.52,20.31-11.65,34.93-32.17,41.18-57.78,4.95-20.28,4.09-41.65-2.16-58.66-3.27,10.84-9.88,23.68-23.22,31.34-20.7,11.88-35.5,1.75-49.81-8.04-11.35-7.77-23.08-15.8-39.18-14.57-2.62.21-4.96-1.68-5.33-4.29-.37-2.61,1.36-5.06,3.94-5.59,10.33-2.13,20.86-6.4,33.13-13.44,41.28-23.69,59.84-58.49,46.2-86.6-4.89-10.08-13.78-17.16-26.41-21.05-35.07-10.81-94.88,4.31-156.11,39.45-51.82,29.74-88.48,58.19-108.96,84.56-16.81,21.63-21.8,41.09-14.43,56.27,4.22,8.69,10.79,14.47,19.54,17.16,14.57,4.49,34.99.44,54.62-10.83,26.45-15.18,45.24-41.35,49.66-67.41-3.99,3.94-8.67,7.57-13.52,10.35-9.75,5.6-18.84,7.35-26.28,5.05-5.43-1.67-9.74-5.51-12.45-11.1-14.29-29.45,29.28-60.09,56.53-75.72,40.45-23.21,79.96-32.34,105.69-24.41,11.73,3.61,20.14,10.53,25,20.56,8.41,17.32,1.58,45.08-33.29,65.09-13.39,7.68-27.78,12.23-39.49,12.48-1.33.02-2.61-.47-3.57-1.39s-1.51-2.18-1.54-3.51c-.56-27.26,1.49-47.22,12.54-65.89-.41.22-.81.44-1.21.67-19.84,11.39-32.68,32.05-47.76,113.39-11.82,63.37-27.23,95.29-53.17,110.18-10.16,5.83-20.26,7.66-28.44,5.14-5.96-1.84-10.59-5.87-13.4-11.65-2.63-5.42-3.3-11.95-2.07-18.41Z"/>
            <path class="cls-26" d="M917.02,340.54c-9.79,0-18.9-3.19-24.96-8.87-5.49-5.15-8.28-12.04-8.05-19.94.56-19.58,20.28-33.52,38.24-35.21,11.26-1.06,22.16,2.23,29.17,8.8,5.52,5.17,8.32,12.02,8.1,19.81-.56,19.58-20.28,33.52-38.24,35.21h0c-1.43.13-2.85.2-4.25.2ZM920.8,335.36h0,0ZM926.34,286.33c-1.05,0-2.1.05-3.16.15-13.49,1.27-28.79,12.07-29.18,25.54-.14,5.02,1.5,9.18,4.89,12.35,4.8,4.5,13.02,6.81,21.44,6.01,13.49-1.27,28.79-12.07,29.18-25.54.14-4.91-1.52-9.03-4.94-12.23-4.25-3.99-11.04-6.29-18.24-6.29Z"/>
            <path class="cls-26" d="M678.13,502.56c-13.8,0-25.33-4.03-33.65-11.82-9.34-8.75-14.03-22.01-13.56-38.33.65-22.69,11.81-45.38,31.43-63.89,18.5-17.46,42.04-28.68,64.6-30.8,17.19-1.61,32.12,2.77,41.62,11.91l2.55-5.48c.75-1.61,2.3-2.7,4.07-2.87l54.76-5.14c1.81-.17,3.56.65,4.59,2.14,1.03,1.49,1.17,3.42.36,5.05-.98,1.99-2.21,4.42-3.61,7.16-8,15.76-22.89,45.09-23.24,57.31-.09,3.18.68,5.77,2.11,7.11,1.13,1.06,2.92,1.49,5.32,1.26,16.22-1.52,31.82-20.93,43.31-35.38l20.31-46.68c.73-1.67,2.3-2.81,4.12-2.98l57.35-5.38c1.76-.16,3.48.61,4.52,2.04,1.04,1.43,1.24,3.31.54,4.93l-21.33,49.07c-2.85,6.7-4.79,12.24-4.93,17.4-.05,1.59.2,3.77,1.63,5.11,1.23,1.16,3.31,1.66,5.85,1.42,8.88-.83,20.35-4.34,44.13-35.51,15.3-33.57,52.45-60.33,88.59-63.72,17.9-1.68,31.8,1.79,40.79,10.08l40.55-91.98c.73-1.66,2.3-2.79,4.11-2.96l57.34-5.38h0c2.75-.27,5.19,1.76,5.45,4.51.1,1.07-.15,2.1-.65,2.97-2.56,5.26-44.88,102.15-61.23,139.64-.32.95-.67,1.96-1.04,3-1.44,4.1-3.08,8.76-3.19,12.69-.02.64.03,2.83,1.48,4.29,1.06,1.07,2.8,1.62,5.11,1.59,17.33-1.75,32.21-20.41,44.17-35.4l.89-1.12c1.06-1.33,2.72-2.02,4.41-1.86l13.25,1.33c1.75.18,3.28,1.26,4.02,2.85.75,1.59.61,3.46-.37,4.92-20.36,30.34-60.73,81.82-102.38,85.73-11.04,1.03-20.26-1.6-26.69-7.62-4.67-4.38-7.81-10.48-9.31-17.99-13.57,17-35.9,33.09-58.38,35.2-16.93,1.59-31.02-2.36-40.73-11.41-6.71-6.25-11.03-14.82-12.78-25.17-25.89,29.55-51.16,45.66-75.22,47.92-13.94,1.31-25.36-1.81-33.05-9.01-5.47-5.13-8.89-12.2-10.1-20.75-22.82,24.59-45.11,38.04-66.36,40.03-11.48,1.08-21.15-1.72-27.95-8.1-4.66-4.37-7.83-10.27-9.4-17.4-13.45,17.23-35.01,33.03-57.02,35.09-2.45.23-4.83.34-7.16.34ZM733.89,367.4c-1.95,0-3.96.09-6.01.29-40.01,3.76-85.7,40.91-86.96,85.01-.39,13.57,3.11,23.91,10.41,30.74,7.56,7.09,18.98,10.14,33.03,8.82,22.83-2.14,46.09-22.55,56.39-40.66,1.1-1.94,3.35-2.91,5.52-2.39l1.1.26c2.3.55,3.9,2.64,3.83,5-.29,10.1,2.25,17.97,7.35,22.74,4.66,4.36,11.63,6.24,20.18,5.44,21.22-1.99,44.21-17.59,68.31-46.36,1.42-1.69,3.77-2.25,5.79-1.39,2.03.86,3.25,2.95,3.01,5.14-.17,1.54-.26,2.78-.29,3.89-.28,9.78,2.21,17.21,7.41,22.08,5.54,5.19,14.28,7.38,25.27,6.35,23.42-2.2,49.84-20.8,76.39-53.81,1.34-1.67,3.6-2.3,5.61-1.56,2.01.74,3.33,2.67,3.28,4.81-.32,13.43,3.21,23.67,10.47,30.44,7.56,7.05,18.97,10.08,32.97,8.77,22.93-2.15,47.43-22.43,57.87-40.8,1.1-1.94,3.35-2.91,5.52-2.39l1.1.26c2.3.55,3.9,2.64,3.83,5-.3,10.62,2.16,18.7,7.14,23.36,4.34,4.06,10.7,5.73,18.91,4.96,26.11-2.45,58.75-29.45,90.27-74.43l-2.14-.22c-13.05,16.35-29.24,36.14-50.44,38.13-.13.01-.25.02-.38.02-6.59.12-10.46-2.42-12.58-4.56-2.9-2.93-4.49-7.16-4.36-11.61.16-5.5,2.15-11.17,3.76-15.73.37-1.06.73-2.07,1.04-3.03.05-.15.1-.3.17-.44,0,0,15.3-35.08,30.65-70.17,7.68-17.55,15.36-35.09,21.15-48.26,2.48-5.63,4.61-10.46,6.25-14.15l-45.85,4.3-42.61,96.66c-.75,1.69-2.37,2.84-4.22,2.97-1.84.12-3.62-.77-4.6-2.34-6.12-9.79-18.55-13.88-36.94-12.15-32.96,3.09-66.88,27.65-80.64,58.39-.16.35-.35.68-.58.98-23.88,31.41-37.41,38.54-51.49,39.86-5.43.51-10.27-.94-13.63-4.08-2.29-2.15-4.98-6.09-4.79-12.69.19-6.73,2.44-13.29,5.74-21.07l17.97-41.34-45.98,4.32-19.39,44.57c-.17.4-.4.77-.67,1.12-12.64,15.91-29.96,37.69-50.61,39.63-6.69.63-10.81-1.79-13.09-3.92-3.57-3.35-5.45-8.57-5.27-14.7.38-13.16,11.9-37.06,23.82-60.58l-42.9,4.03-4.69,10.09c-.77,1.66-2.4,2.77-4.23,2.88-1.82.12-3.58-.78-4.55-2.34-5.68-9.09-17.26-14.21-31.62-14.21ZM1148.55,409.96h0,0ZM1203.3,246.21h-.01s0,0,.01,0ZM1203.32,246.21h-.01s0,0,.01,0ZM1204.88,245.79c-.48.22-1.01.36-1.56.42.58-.06,1.1-.21,1.56-.42ZM1207.04,243.9c-.27.42-.6.81-.98,1.13.42-.36.75-.75.98-1.13ZM718.01,456.01c-5.64,0-10.56-1.84-14.35-5.4-4.87-4.56-7.42-11.59-7.18-19.79.28-9.97,3.77-20.33,10.09-29.94,9.44-14.95,23.16-25.02,35.76-26.2,6.68-.63,12.5,1.19,16.84,5.25,4.91,4.6,7.48,11.77,7.24,20.19-.76,26.58-26.47,53.96-45.84,55.78h0c-.86.08-1.71.12-2.55.12ZM720.1,450.91h0,0ZM744.87,384.55c-.52,0-1.06.03-1.61.08-9.43.89-20.54,9.39-28.29,21.66-5.34,8.14-8.27,16.7-8.5,24.82-.15,5.3,1.28,9.64,4.02,12.21,2.23,2.09,5.31,2.97,9.13,2.61h0c14.69-1.38,36.19-25.46,36.78-46.11.16-5.52-1.29-9.99-4.08-12.6-1.89-1.77-4.39-2.67-7.45-2.67ZM1050.62,424.79c-5.64,0-10.56-1.84-14.35-5.39-4.87-4.56-7.42-11.59-7.18-19.79.29-9.97,3.77-20.33,10.09-29.94,9.44-14.95,23.16-25.02,35.76-26.2,6.68-.63,12.5,1.19,16.84,5.25,4.91,4.6,7.48,11.77,7.24,20.19-.76,26.58-26.47,53.96-45.84,55.78h0c-.86.08-1.71.12-2.55.12ZM1052.7,419.69h0,0ZM1077.48,353.33c-.52,0-1.06.03-1.61.08-9.43.89-20.54,9.39-28.29,21.66-5.34,8.14-8.27,16.7-8.5,24.82-.15,5.3,1.28,9.64,4.02,12.21,2.23,2.09,5.31,2.97,9.13,2.61h0c14.69-1.38,36.19-25.46,36.78-46.11.16-5.52-1.29-9.99-4.08-12.6-1.89-1.77-4.4-2.67-7.45-2.67Z"/>
          </g>
          <g>
            <g>
              <g>
                <path class="cls-22" d="M604.46,350.12c-1.5,15.76-8.24,33.61-23.68,42.48-33.14,19.02-47.88-26.23-86.88-23.26,12.26-2.52,23.69-7.73,34.61-14,45.19-25.94,62.43-63.82,48.21-93.12-20.56-42.36-101.4-34.33-189.51,16.25-111.84,64.19-140.82,115.58-125.4,147.35,14.91,30.71,53.29,24.48,81.15,8.49,34.27-19.67,55.31-55.67,53.01-88.19-2.84,7.05-11.67,16.63-21.84,22.46-12.8,7.35-25.92,8.11-31.74-3.9-13.02-26.83,33.81-57.32,54.52-69.2,53.47-30.69,108.46-37.43,123.71-6.01,7.88,16.24-.4,40.85-31.28,58.57-12.05,6.92-25.67,11.58-37.11,11.82-.66-32.12,1.97-53.48,20.65-75.49-5.75,1.05-11.54,3.01-16.81,6.04-21.84,12.54-35.01,34.99-50.19,116.82-12.17,65.2-27.77,93.57-50.74,106.75-15.06,8.65-29.2,7.28-34.86-4.37-3.43-7.06-2.71-16.5,1.63-24.41-7.63,2.12-15.13,5.53-22.29,9.63-33.51,19.24-45.9,60.19-31.16,90.55,16.28,33.54,56.51,42.04,101.32,16.32,53.1-30.47,77.96-95.3,81.96-214.04,18.35-2.86,29.49,15.12,36,28.54,7.71,15.89,7.27,32.84,17.04,52.96,11.82,24.36,38.43,32.56,65.17,17.21,47.07-27.02,56.29-92.34,38.3-129.4-1.2-2.47-2.78-4.73-3.8-6.84Z"/>
                <path class="cls-22" d="M319.73,621.71c-6.97,0-13.65-.95-19.91-2.89-15.9-4.9-28.29-15.71-35.84-31.26-16.33-33.65-1.45-77.2,33.17-97.07,8.06-4.62,15.94-8.03,23.43-10.11,1.94-.54,4.01.13,5.26,1.71,1.25,1.58,1.43,3.75.46,5.51-3.59,6.54-4.19,14.32-1.52,19.82,1.59,3.28,4.06,5.45,7.35,6.46,5.42,1.67,12.9.12,20.52-4.25,23.1-13.26,37.09-43.19,48.31-103.33,15.8-85.18,30.11-107.32,52.62-120.24,5.54-3.18,11.73-5.41,18.4-6.62,2.08-.38,4.17.59,5.23,2.42,1.06,1.83.85,4.12-.52,5.74-16.32,19.22-19.76,38.03-19.54,66.86,9.1-1.19,19.64-4.99,29.7-10.76,29.3-16.82,35.71-38.77,29.27-52.05-3.61-7.43-9.98-12.6-18.95-15.36-22.78-7.02-60.25,1.99-97.77,23.53-15.22,8.73-63.97,39.06-52.51,62.68,1.51,3.12,3.61,5.05,6.4,5.91,4.59,1.41,11.28-.1,18.36-4.17,9.83-5.64,17.48-14.51,19.69-20,.87-2.16,3.11-3.44,5.42-3.07,2.3.36,4.04,2.26,4.21,4.59,2.49,35.08-19.82,72.4-55.51,92.88-22,12.63-45.38,17-62.55,11.71-11.5-3.55-20.11-11.07-25.59-22.35-6.37-13.13-8.85-35.38,15.53-66.77,21.29-27.4,58.93-56.71,111.88-87.1,64.52-37.03,125.84-52.11,164.04-40.34,15.39,4.74,26.31,13.57,32.46,26.24,7.7,15.88,7.05,34.43-1.85,52.24-9,18.01-25.73,34.4-48.37,47.4-5.34,3.06-10.39,5.65-15.27,7.79,8.85,3.24,16.38,8.39,23.37,13.17,13.89,9.51,23.93,16.37,39.18,7.62,16.72-9.6,20.39-30.2,21.19-38.61.21-2.23,1.88-4.05,4.09-4.45,2.2-.4,4.41.72,5.39,2.74.4.83.97,1.79,1.56,2.8.71,1.21,1.53,2.58,2.24,4.05,9.64,19.86,11.74,46.72,5.6,71.84-6.91,28.29-23.21,51.05-45.92,64.08-14.42,8.28-29.78,10.55-43.25,6.4-12.44-3.83-22.7-12.98-28.9-25.76-5.41-11.15-7.86-21.5-10.02-30.64-1.87-7.89-3.63-15.34-7.01-22.32-8.29-17.07-16.85-25.46-26.67-25.99-2.25,58.25-9.7,103.16-22.73,137.18-13.59,35.47-33.73,60.49-61.57,76.47-18.04,10.35-36.11,15.67-52.56,15.67ZM313.73,493.38c-3.78,1.6-7.66,3.53-11.6,5.79-30.16,17.31-43.24,55.01-29.15,84.03,6.31,12.99,16.61,22.01,29.79,26.07,18.38,5.67,41.3,1.44,64.55-11.91,51.74-29.7,75.5-92.46,79.46-209.87.08-2.4,1.86-4.4,4.23-4.77,24.25-3.78,37.06,22.62,41.26,31.29,3.87,7.97,5.75,15.94,7.75,24.38,2.14,9.05,4.36,18.42,9.29,28.58,5.05,10.41,12.95,17.52,22.85,20.57,10.79,3.33,23.34,1.37,35.33-5.52,20.31-11.65,34.93-32.17,41.18-57.78,4.95-20.28,4.09-41.65-2.16-58.66-3.27,10.84-9.88,23.68-23.22,31.34-20.7,11.88-35.5,1.75-49.81-8.04-11.35-7.77-23.08-15.8-39.18-14.57-2.63.21-4.96-1.68-5.33-4.29-.37-2.61,1.36-5.06,3.94-5.59,10.33-2.13,20.86-6.4,33.13-13.44,41.28-23.69,59.84-58.49,46.2-86.6-4.89-10.08-13.78-17.16-26.41-21.05-35.06-10.81-94.88,4.31-156.11,39.45-51.82,29.74-88.48,58.19-108.96,84.56-16.81,21.63-21.8,41.09-14.43,56.27,4.22,8.69,10.79,14.47,19.54,17.16,14.57,4.49,34.99.44,54.62-10.83,26.45-15.18,45.24-41.35,49.66-67.41-3.99,3.94-8.67,7.57-13.52,10.35-9.75,5.6-18.84,7.35-26.28,5.05-5.43-1.67-9.74-5.51-12.45-11.1-14.29-29.45,29.28-60.09,56.53-75.72,40.45-23.21,79.96-32.34,105.69-24.41,11.73,3.61,20.14,10.53,25,20.56,8.41,17.32,1.58,45.08-33.29,65.09-13.39,7.68-27.78,12.23-39.49,12.48-1.33.01-2.61-.47-3.57-1.39s-1.51-2.18-1.54-3.51c-.56-27.26,1.49-47.22,12.54-65.89-.41.22-.81.44-1.21.67-19.84,11.39-32.68,32.05-47.76,113.39-11.82,63.37-27.23,95.29-53.17,110.18-10.16,5.83-20.26,7.66-28.44,5.14-5.96-1.84-10.59-5.87-13.4-11.65-2.63-5.42-3.3-11.95-2.07-18.41Z"/>
              </g>
              <path class="cls-22" d="M905.8,320.36c15.17-1.42,33.22-13.41,33.71-30.37.48-16.96-16.26-24.95-31.8-23.49-15.17,1.42-33.22,13.41-33.71,30.37-.5,17.33,16.26,24.95,31.8,23.49Z"/>
              <g>
                <path class="cls-22" d="M1182.24,356.56c-13.01,16.3-28.72,36.52-48.7,38.4-9.6.17-11.99-6.6-11.86-11.02.17-5.9,2.94-12.41,4.56-17.34,0,0,61.2-140.32,61.57-140.36l-57.35,5.38-43.8,99.34c-8.47-13.54-25.37-16-41.65-14.48-34.17,3.21-70.11,28.66-84.74,61.32-23.17,30.48-35.83,36.77-47.98,37.91-7.77.73-13.18-3.54-12.95-11.65.18-6.27,2.58-12.74,5.35-19.25l21.33-49.07-57.35,5.38-20.57,47.28c-12.57,15.82-28.87,36.05-47.17,37.77-9.99.94-13.1-6.49-12.9-13.5.44-15.48,20.31-52.28,27.36-66.55l-54.76,5.14-5.9,12.69c-8.47-13.55-26.06-17.78-42.34-16.25-43.66,4.1-90.2,44.5-91.5,89.85-.96,33.55,20.79,47.32,48.9,44.68,24.42-2.29,49.01-23.35,60.27-43.16l1.1.26c-.65,22.86,11.91,35.28,32.99,33.3,24.85-2.33,49.23-21.33,71.68-48.13-.16,1.45-.28,2.89-.32,4.29-.67,23.6,13.73,35.85,38.15,33.56,29.99-2.81,58.24-28.83,79.82-55.65-.78,33.27,20.9,46.93,48.91,44.3,24.42-2.29,50.49-23.49,61.75-43.3l1.1.26c-.65,22.86,10.43,35.42,31.51,33.44,34.78-3.26,72.1-43.9,98.69-83.54l-13.25-1.33ZM705.1,435.91c-12.21,1.15-18.97-7.78-18.62-19.95.24-8.48,3.1-17.94,9.27-27.34,8.89-14.07,21.32-22.96,32.05-23.97,12.21-1.15,18.97,7.78,18.61,20.32-.66,23.23-23.92,49.31-41.31,50.94ZM1037.7,404.69c-12.21,1.15-18.97-7.78-18.62-19.95.24-8.48,3.1-17.94,9.27-27.34,8.89-14.07,21.32-22.96,32.05-23.97,12.21-1.15,18.97,7.78,18.61,20.32-.66,23.23-23.92,49.31-41.31,50.94Z"/>
                <path class="cls-22" d="M663.13,487.56c-13.8,0-25.33-4.03-33.65-11.82-9.34-8.75-14.03-22.01-13.56-38.33.65-22.69,11.81-45.38,31.43-63.89,18.5-17.46,42.04-28.68,64.6-30.8,17.19-1.61,32.12,2.77,41.62,11.91l2.55-5.48c.75-1.61,2.3-2.7,4.07-2.87l54.76-5.14c1.81-.17,3.56.65,4.59,2.14,1.03,1.49,1.17,3.42.36,5.05-.98,1.99-2.21,4.42-3.61,7.16-8,15.76-22.89,45.09-23.24,57.31-.09,3.18.68,5.77,2.11,7.11,1.13,1.06,2.92,1.49,5.32,1.26,16.22-1.52,31.82-20.93,43.31-35.38l20.31-46.68c.73-1.67,2.3-2.81,4.12-2.98l57.35-5.38c1.76-.16,3.48.61,4.52,2.04,1.04,1.43,1.24,3.31.54,4.93l-21.33,49.07c-2.85,6.7-4.79,12.24-4.93,17.4-.05,1.59.2,3.77,1.63,5.11,1.23,1.16,3.31,1.66,5.85,1.42,8.88-.83,20.35-4.34,44.13-35.51,15.3-33.57,52.45-60.33,88.59-63.72,17.89-1.68,31.8,1.79,40.79,10.08l40.55-91.98c.73-1.66,2.3-2.79,4.11-2.96l57.34-5.38h0c2.75-.27,5.19,1.76,5.45,4.51.1,1.07-.15,2.1-.65,2.97-2.56,5.26-44.88,102.15-61.23,139.64-.32.95-.67,1.96-1.04,3-1.44,4.1-3.08,8.76-3.19,12.69-.02.64.03,2.83,1.48,4.29,1.06,1.07,2.81,1.58,5.11,1.59,17.33-1.75,32.21-20.41,44.17-35.4l.89-1.12c1.06-1.33,2.72-2.02,4.41-1.86l13.25,1.33c1.75.18,3.28,1.26,4.02,2.85.75,1.59.61,3.46-.37,4.92-20.36,30.34-60.73,81.82-102.38,85.73-11.04,1.03-20.26-1.6-26.69-7.62-4.67-4.38-7.81-10.48-9.31-17.99-13.57,17-35.9,33.09-58.38,35.2-16.93,1.59-31.02-2.36-40.73-11.41-6.71-6.25-11.03-14.82-12.78-25.17-25.89,29.55-51.16,45.66-75.22,47.92-13.93,1.31-25.36-1.81-33.05-9.01-5.47-5.13-8.89-12.2-10.1-20.75-22.82,24.59-45.11,38.04-66.36,40.03-11.48,1.08-21.15-1.72-27.95-8.1-4.66-4.37-7.83-10.27-9.4-17.4-13.45,17.23-35.01,33.03-57.02,35.09-2.45.23-4.83.34-7.16.34ZM718.89,352.4c-1.95,0-3.96.09-6.01.29-40.01,3.76-85.7,40.91-86.96,85.01-.39,13.57,3.11,23.91,10.41,30.74,7.56,7.09,18.98,10.14,33.03,8.82,22.83-2.14,46.09-22.55,56.39-40.66,1.1-1.94,3.35-2.91,5.52-2.39l1.1.26c2.3.55,3.9,2.64,3.83,5-.29,10.1,2.25,17.97,7.35,22.74,4.66,4.36,11.64,6.24,20.18,5.44,21.22-1.99,44.21-17.59,68.31-46.36,1.41-1.69,3.77-2.25,5.79-1.39,2.03.86,3.25,2.95,3.01,5.14-.17,1.54-.26,2.78-.29,3.89-.28,9.78,2.21,17.21,7.41,22.08,5.54,5.19,14.28,7.38,25.27,6.35,23.42-2.2,49.84-20.8,76.39-53.81,1.34-1.67,3.6-2.3,5.61-1.56,2.01.74,3.33,2.67,3.28,4.81-.32,13.43,3.21,23.67,10.47,30.44,7.56,7.05,18.97,10.08,32.97,8.77,22.93-2.15,47.43-22.43,57.87-40.8,1.1-1.94,3.35-2.91,5.52-2.39l1.1.26c2.3.55,3.9,2.64,3.83,5-.3,10.62,2.16,18.7,7.14,23.36,4.34,4.06,10.7,5.73,18.91,4.96,26.11-2.45,58.75-29.45,90.27-74.43l-2.14-.22c-13.05,16.35-29.24,36.14-50.44,38.13-.13.01-.25.02-.38.02-6.58.1-10.46-2.42-12.58-4.56-2.9-2.93-4.49-7.16-4.36-11.61.16-5.5,2.15-11.17,3.76-15.73.37-1.06.73-2.07,1.04-3.03.05-.15.1-.3.17-.44,0,0,15.3-35.08,30.65-70.17,7.68-17.55,15.36-35.09,21.15-48.26,2.48-5.63,4.61-10.46,6.25-14.15l-45.85,4.3-42.61,96.66c-.75,1.69-2.37,2.84-4.22,2.97-1.85.12-3.62-.77-4.6-2.34-6.12-9.79-18.55-13.88-36.94-12.15-32.96,3.09-66.88,27.65-80.64,58.39-.16.35-.35.68-.58.98-23.88,31.41-37.41,38.54-51.49,39.86-5.43.51-10.27-.94-13.63-4.08-2.29-2.15-4.98-6.09-4.79-12.69.19-6.73,2.44-13.29,5.74-21.07l17.97-41.34-45.98,4.32-19.39,44.57c-.17.4-.4.77-.67,1.12-12.64,15.91-29.96,37.69-50.61,39.63-6.69.63-10.81-1.79-13.09-3.92-3.57-3.35-5.45-8.57-5.27-14.7.38-13.16,11.9-37.06,23.82-60.58l-42.9,4.03-4.69,10.09c-.77,1.66-2.4,2.77-4.23,2.88-1.83.11-3.58-.79-4.55-2.34-5.68-9.09-17.26-14.21-31.62-14.21ZM1133.55,394.96h0,0ZM1188.3,231.21h-.01s0,0,.01,0ZM1188.32,231.21h-.01s0,0,.01,0ZM1189.88,230.79c-.48.22-1.01.36-1.56.42.58-.06,1.1-.21,1.56-.42ZM1192.04,228.9c-.27.42-.6.81-.98,1.13.42-.36.75-.75.98-1.13ZM703.01,441.01c-5.64,0-10.56-1.84-14.35-5.4-4.87-4.56-7.42-11.59-7.18-19.79.28-9.97,3.77-20.33,10.09-29.94,9.44-14.95,23.16-25.02,35.76-26.2,6.68-.63,12.5,1.19,16.84,5.25,4.91,4.6,7.48,11.77,7.24,20.19-.76,26.58-26.47,53.96-45.84,55.78h0c-.86.08-1.71.12-2.55.12ZM705.1,435.91h0,0ZM729.87,369.55c-.52,0-1.06.03-1.61.08-9.43.89-20.54,9.39-28.29,21.66-5.34,8.14-8.27,16.7-8.5,24.82-.15,5.3,1.28,9.64,4.02,12.21,2.23,2.09,5.31,2.97,9.13,2.61h0c14.69-1.38,36.19-25.46,36.78-46.11.16-5.52-1.29-9.99-4.08-12.6-1.89-1.77-4.39-2.67-7.45-2.67ZM1035.62,409.79c-5.64,0-10.56-1.84-14.35-5.39-4.87-4.56-7.42-11.59-7.18-19.79.29-9.97,3.77-20.33,10.09-29.94,9.44-14.95,23.16-25.02,35.76-26.2,6.68-.63,12.5,1.19,16.84,5.25,4.91,4.6,7.48,11.77,7.24,20.19-.76,26.58-26.47,53.96-45.84,55.78h0c-.86.08-1.71.12-2.55.12ZM1037.7,404.69h0,0ZM1062.48,338.33c-.52,0-1.06.03-1.61.08-9.43.89-20.54,9.39-28.29,21.66-5.34,8.14-8.27,16.7-8.5,24.82-.15,5.3,1.28,9.64,4.02,12.21,2.23,2.09,5.31,2.97,9.13,2.61h0c14.69-1.38,36.19-25.46,36.78-46.11.16-5.52-1.29-9.99-4.08-12.6-1.89-1.77-4.4-2.67-7.45-2.67Z"/>
              </g>
            </g>
            <g>
              <g>
                <path class="cls-22" d="M319.73,621.71c-6.97,0-13.65-.95-19.91-2.89-15.9-4.9-28.29-15.71-35.84-31.26-16.33-33.65-1.45-77.2,33.17-97.07,8.06-4.62,15.94-8.03,23.43-10.11,1.94-.54,4.01.13,5.26,1.71,1.25,1.58,1.43,3.75.46,5.51-3.59,6.54-4.19,14.32-1.52,19.82,1.59,3.28,4.06,5.45,7.35,6.46,5.42,1.67,12.9.12,20.52-4.25,23.1-13.26,37.09-43.19,48.31-103.33,15.8-85.18,30.11-107.32,52.62-120.24,5.54-3.18,11.73-5.41,18.4-6.62,2.08-.38,4.17.59,5.23,2.42,1.06,1.83.85,4.12-.52,5.74-16.32,19.22-19.76,38.03-19.54,66.86,9.1-1.19,19.64-4.99,29.7-10.76,29.3-16.82,35.71-38.77,29.27-52.05-3.61-7.43-9.98-12.6-18.95-15.36-22.78-7.02-60.25,1.99-97.77,23.53-15.22,8.73-63.97,39.06-52.51,62.68,1.51,3.12,3.61,5.05,6.4,5.91,4.59,1.41,11.28-.1,18.36-4.17,9.83-5.64,17.48-14.51,19.69-20,.87-2.16,3.11-3.44,5.42-3.07,2.3.36,4.04,2.26,4.21,4.59,2.49,35.08-19.82,72.4-55.51,92.88-22,12.63-45.38,17-62.55,11.71-11.5-3.55-20.11-11.07-25.59-22.35-6.37-13.13-8.85-35.38,15.53-66.77,21.29-27.4,58.93-56.71,111.88-87.1,64.52-37.03,125.84-52.11,164.04-40.34,15.39,4.74,26.31,13.57,32.46,26.24,7.7,15.88,7.05,34.43-1.85,52.24-9,18.01-25.73,34.4-48.37,47.4-5.34,3.06-10.39,5.65-15.27,7.79,8.85,3.24,16.38,8.39,23.37,13.17,13.89,9.51,23.93,16.37,39.18,7.62,16.72-9.6,20.39-30.2,21.19-38.61.21-2.23,1.88-4.05,4.09-4.45,2.2-.4,4.41.72,5.39,2.74.4.83.97,1.79,1.56,2.8.71,1.21,1.53,2.58,2.24,4.05,9.64,19.86,11.74,46.72,5.6,71.84-6.91,28.29-23.21,51.05-45.92,64.08-14.42,8.28-29.78,10.55-43.25,6.4-12.44-3.83-22.7-12.98-28.9-25.76-5.41-11.15-7.86-21.5-10.02-30.64-1.87-7.89-3.63-15.34-7.01-22.32-8.29-17.07-16.85-25.46-26.67-25.99-2.25,58.25-9.7,103.16-22.73,137.18-13.59,35.47-33.73,60.49-61.57,76.47-18.04,10.35-36.11,15.67-52.56,15.67ZM313.73,493.38c-3.78,1.6-7.66,3.53-11.6,5.79-30.16,17.31-43.24,55.01-29.15,84.03,6.31,12.99,16.61,22.01,29.79,26.07,18.38,5.67,41.3,1.44,64.55-11.91,51.74-29.7,75.5-92.46,79.46-209.87.08-2.4,1.86-4.4,4.23-4.77,24.25-3.78,37.06,22.62,41.26,31.29,3.87,7.97,5.75,15.94,7.75,24.38,2.14,9.05,4.36,18.42,9.29,28.58,5.05,10.41,12.95,17.52,22.85,20.57,10.79,3.33,23.34,1.37,35.33-5.52,20.31-11.65,34.93-32.17,41.18-57.78,4.95-20.28,4.09-41.65-2.16-58.66-3.27,10.84-9.88,23.68-23.22,31.34-20.7,11.88-35.5,1.75-49.81-8.04-11.35-7.77-23.08-15.8-39.18-14.57-2.63.21-4.96-1.68-5.33-4.29-.37-2.61,1.36-5.06,3.94-5.59,10.33-2.13,20.86-6.4,33.13-13.44,41.28-23.69,59.84-58.49,46.2-86.6-4.89-10.08-13.78-17.16-26.41-21.05-35.06-10.81-94.88,4.31-156.11,39.45-51.82,29.74-88.48,58.19-108.96,84.56-16.81,21.63-21.8,41.09-14.43,56.27,4.22,8.69,10.79,14.47,19.54,17.16,14.57,4.49,34.99.44,54.62-10.83,26.45-15.18,45.24-41.35,49.66-67.41-3.99,3.94-8.67,7.57-13.52,10.35-9.75,5.6-18.84,7.35-26.28,5.05-5.43-1.67-9.74-5.51-12.45-11.1-14.29-29.45,29.28-60.09,56.53-75.72,40.45-23.21,79.96-32.34,105.69-24.41,11.73,3.61,20.14,10.53,25,20.56,8.41,17.32,1.58,45.08-33.29,65.09-13.39,7.68-27.78,12.23-39.49,12.48-1.33.01-2.61-.47-3.57-1.39s-1.51-2.18-1.54-3.51c-.56-27.26,1.49-47.22,12.54-65.89-.41.22-.81.44-1.21.67-19.84,11.39-32.68,32.05-47.76,113.39-11.82,63.37-27.23,95.29-53.17,110.18-10.16,5.83-20.26,7.66-28.44,5.14-5.96-1.84-10.59-5.87-13.4-11.65-2.63-5.42-3.3-11.95-2.07-18.41Z"/>
                <path class="cls-22" d="M319.73,621.71c-6.97,0-13.65-.95-19.91-2.89-15.9-4.9-28.29-15.71-35.84-31.26-16.33-33.65-1.45-77.2,33.17-97.07,8.06-4.62,15.94-8.03,23.43-10.11,1.94-.54,4.01.13,5.26,1.71,1.25,1.58,1.43,3.75.46,5.51-3.59,6.54-4.19,14.32-1.52,19.82,1.59,3.28,4.06,5.45,7.35,6.46,5.42,1.67,12.9.12,20.52-4.25,23.1-13.26,37.09-43.19,48.31-103.33,15.8-85.18,30.11-107.32,52.62-120.24,5.54-3.18,11.73-5.41,18.4-6.62,2.08-.38,4.17.59,5.23,2.42,1.06,1.83.85,4.12-.52,5.74-16.32,19.22-19.76,38.03-19.54,66.86,9.1-1.19,19.64-4.99,29.7-10.76,29.3-16.82,35.71-38.77,29.27-52.05-3.61-7.43-9.98-12.6-18.95-15.36-22.78-7.02-60.25,1.99-97.77,23.53-15.22,8.73-63.97,39.06-52.51,62.68,1.51,3.12,3.61,5.05,6.4,5.91,4.59,1.41,11.28-.1,18.36-4.17,9.83-5.64,17.48-14.51,19.69-20,.87-2.16,3.11-3.44,5.42-3.07,2.3.36,4.04,2.26,4.21,4.59,2.49,35.08-19.82,72.4-55.51,92.88-22,12.63-45.38,17-62.55,11.71-11.5-3.55-20.11-11.07-25.59-22.35-6.37-13.13-8.85-35.38,15.53-66.77,21.29-27.4,58.93-56.71,111.88-87.1,64.52-37.03,125.84-52.11,164.04-40.34,15.39,4.74,26.31,13.57,32.46,26.24,7.7,15.88,7.05,34.43-1.85,52.24-9,18.01-25.73,34.4-48.37,47.4-5.34,3.06-10.39,5.65-15.27,7.79,8.85,3.24,16.38,8.39,23.37,13.17,13.89,9.51,23.93,16.37,39.18,7.62,16.72-9.6,20.39-30.2,21.19-38.61.21-2.23,1.88-4.05,4.09-4.45,2.2-.4,4.41.72,5.39,2.74.4.83.97,1.79,1.56,2.8.71,1.21,1.53,2.58,2.24,4.05,9.64,19.86,11.74,46.72,5.6,71.84-6.91,28.29-23.21,51.05-45.92,64.08-14.42,8.28-29.78,10.55-43.25,6.4-12.44-3.83-22.7-12.98-28.9-25.76-5.41-11.15-7.86-21.5-10.02-30.64-1.87-7.89-3.63-15.34-7.01-22.32-8.29-17.07-16.85-25.46-26.67-25.99-2.25,58.25-9.7,103.16-22.73,137.18-13.59,35.47-33.73,60.49-61.57,76.47-18.04,10.35-36.11,15.67-52.56,15.67ZM313.73,493.38c-3.78,1.6-7.66,3.53-11.6,5.79-30.16,17.31-43.24,55.01-29.15,84.03,6.31,12.99,16.61,22.01,29.79,26.07,18.38,5.67,41.3,1.44,64.55-11.91,51.74-29.7,75.5-92.46,79.46-209.87.08-2.4,1.86-4.4,4.23-4.77,24.25-3.78,37.06,22.62,41.26,31.29,3.87,7.97,5.75,15.94,7.75,24.38,2.14,9.05,4.36,18.42,9.29,28.58,5.05,10.41,12.95,17.52,22.85,20.57,10.79,3.33,23.34,1.37,35.33-5.52,20.31-11.65,34.93-32.17,41.18-57.78,4.95-20.28,4.09-41.65-2.16-58.66-3.27,10.84-9.88,23.68-23.22,31.34-20.7,11.88-35.5,1.75-49.81-8.04-11.35-7.77-23.08-15.8-39.18-14.57-2.63.21-4.96-1.68-5.33-4.29-.37-2.61,1.36-5.06,3.94-5.59,10.33-2.13,20.86-6.4,33.13-13.44,41.28-23.69,59.84-58.49,46.2-86.6-4.89-10.08-13.78-17.16-26.41-21.05-35.06-10.81-94.88,4.31-156.11,39.45-51.82,29.74-88.48,58.19-108.96,84.56-16.81,21.63-21.8,41.09-14.43,56.27,4.22,8.69,10.79,14.47,19.54,17.16,14.57,4.49,34.99.44,54.62-10.83,26.45-15.18,45.24-41.35,49.66-67.41-3.99,3.94-8.67,7.57-13.52,10.35-9.75,5.6-18.84,7.35-26.28,5.05-5.43-1.67-9.74-5.51-12.45-11.1-14.29-29.45,29.28-60.09,56.53-75.72,40.45-23.21,79.96-32.34,105.69-24.41,11.73,3.61,20.14,10.53,25,20.56,8.41,17.32,1.58,45.08-33.29,65.09-13.39,7.68-27.78,12.23-39.49,12.48-1.33.01-2.61-.47-3.57-1.39s-1.51-2.18-1.54-3.51c-.56-27.26,1.49-47.22,12.54-65.89-.41.22-.81.44-1.21.67-19.84,11.39-32.68,32.05-47.76,113.39-11.82,63.37-27.23,95.29-53.17,110.18-10.16,5.83-20.26,7.66-28.44,5.14-5.96-1.84-10.59-5.87-13.4-11.65-2.63-5.42-3.3-11.95-2.07-18.41Z"/>
              </g>
              <path class="cls-22" d="M902.02,325.54c-9.79,0-18.9-3.19-24.96-8.87-5.49-5.15-8.28-12.04-8.05-19.94.56-19.58,20.28-33.52,38.24-35.21,11.26-1.06,22.16,2.23,29.17,8.8,5.52,5.17,8.32,12.02,8.1,19.81-.56,19.58-20.28,33.52-38.24,35.21h0c-1.43.13-2.85.2-4.25.2ZM905.8,320.36h0,0ZM911.34,271.33c-1.05,0-2.1.05-3.16.15-13.49,1.27-28.79,12.07-29.18,25.54-.14,5.02,1.5,9.18,4.89,12.35,4.8,4.5,13.02,6.8,21.44,6.01,13.49-1.27,28.79-12.07,29.18-25.54.14-4.91-1.52-9.03-4.94-12.23-4.25-3.99-11.04-6.29-18.24-6.29Z"/>
              <path class="cls-22" d="M663.13,487.56c-13.8,0-25.33-4.03-33.65-11.82-9.34-8.75-14.03-22.01-13.56-38.33.65-22.69,11.81-45.38,31.43-63.89,18.5-17.46,42.04-28.68,64.6-30.8,17.19-1.61,32.12,2.77,41.62,11.91l2.55-5.48c.75-1.61,2.3-2.7,4.07-2.87l54.76-5.14c1.81-.17,3.56.65,4.59,2.14,1.03,1.49,1.17,3.42.36,5.05-.98,1.99-2.21,4.42-3.61,7.16-8,15.76-22.89,45.09-23.24,57.31-.09,3.18.68,5.77,2.11,7.11,1.13,1.06,2.92,1.49,5.32,1.26,16.22-1.52,31.82-20.93,43.31-35.38l20.31-46.68c.73-1.67,2.3-2.81,4.12-2.98l57.35-5.38c1.76-.16,3.48.61,4.52,2.04,1.04,1.43,1.24,3.31.54,4.93l-21.33,49.07c-2.85,6.7-4.79,12.24-4.93,17.4-.05,1.59.2,3.77,1.63,5.11,1.23,1.16,3.31,1.66,5.85,1.42,8.88-.83,20.35-4.34,44.13-35.51,15.3-33.57,52.45-60.33,88.59-63.72,17.89-1.68,31.8,1.79,40.79,10.08l40.55-91.98c.73-1.66,2.3-2.79,4.11-2.96l57.34-5.38h0c2.75-.27,5.19,1.76,5.45,4.51.1,1.07-.15,2.1-.65,2.97-2.56,5.26-44.88,102.15-61.23,139.64-.32.95-.67,1.96-1.04,3-1.44,4.1-3.08,8.76-3.19,12.69-.02.64.03,2.83,1.48,4.29,1.06,1.07,2.81,1.58,5.11,1.59,17.33-1.75,32.21-20.41,44.17-35.4l.89-1.12c1.06-1.33,2.72-2.02,4.41-1.86l13.25,1.33c1.75.18,3.28,1.26,4.02,2.85.75,1.59.61,3.46-.37,4.92-20.36,30.34-60.73,81.82-102.38,85.73-11.04,1.03-20.26-1.6-26.69-7.62-4.67-4.38-7.81-10.48-9.31-17.99-13.57,17-35.9,33.09-58.38,35.2-16.93,1.59-31.02-2.36-40.73-11.41-6.71-6.25-11.03-14.82-12.78-25.17-25.89,29.55-51.16,45.66-75.22,47.92-13.93,1.31-25.36-1.81-33.05-9.01-5.47-5.13-8.89-12.2-10.1-20.75-22.82,24.59-45.11,38.04-66.36,40.03-11.48,1.08-21.15-1.72-27.95-8.1-4.66-4.37-7.83-10.27-9.4-17.4-13.45,17.23-35.01,33.03-57.02,35.09-2.45.23-4.83.34-7.16.34ZM718.89,352.4c-1.95,0-3.96.09-6.01.29-40.01,3.76-85.7,40.91-86.96,85.01-.39,13.57,3.11,23.91,10.41,30.74,7.56,7.09,18.98,10.14,33.03,8.82,22.83-2.14,46.09-22.55,56.39-40.66,1.1-1.94,3.35-2.91,5.52-2.39l1.1.26c2.3.55,3.9,2.64,3.83,5-.29,10.1,2.25,17.97,7.35,22.74,4.66,4.36,11.64,6.24,20.18,5.44,21.22-1.99,44.21-17.59,68.31-46.36,1.41-1.69,3.77-2.25,5.79-1.39,2.03.86,3.25,2.95,3.01,5.14-.17,1.54-.26,2.78-.29,3.89-.28,9.78,2.21,17.21,7.41,22.08,5.54,5.19,14.28,7.38,25.27,6.35,23.42-2.2,49.84-20.8,76.39-53.81,1.34-1.67,3.6-2.3,5.61-1.56,2.01.74,3.33,2.67,3.28,4.81-.32,13.43,3.21,23.67,10.47,30.44,7.56,7.05,18.97,10.08,32.97,8.77,22.93-2.15,47.43-22.43,57.87-40.8,1.1-1.94,3.35-2.91,5.52-2.39l1.1.26c2.3.55,3.9,2.64,3.83,5-.3,10.62,2.16,18.7,7.14,23.36,4.34,4.06,10.7,5.73,18.91,4.96,26.11-2.45,58.75-29.45,90.27-74.43l-2.14-.22c-13.05,16.35-29.24,36.14-50.44,38.13-.13.01-.25.02-.38.02-6.58.1-10.46-2.42-12.58-4.56-2.9-2.93-4.49-7.16-4.36-11.61.16-5.5,2.15-11.17,3.76-15.73.37-1.06.73-2.07,1.04-3.03.05-.15.1-.3.17-.44,0,0,15.3-35.08,30.65-70.17,7.68-17.55,15.36-35.09,21.15-48.26,2.48-5.63,4.61-10.46,6.25-14.15l-45.85,4.3-42.61,96.66c-.75,1.69-2.37,2.84-4.22,2.97-1.85.12-3.62-.77-4.6-2.34-6.12-9.79-18.55-13.88-36.94-12.15-32.96,3.09-66.88,27.65-80.64,58.39-.16.35-.35.68-.58.98-23.88,31.41-37.41,38.54-51.49,39.86-5.43.51-10.27-.94-13.63-4.08-2.29-2.15-4.98-6.09-4.79-12.69.19-6.73,2.44-13.29,5.74-21.07l17.97-41.34-45.98,4.32-19.39,44.57c-.17.4-.4.77-.67,1.12-12.64,15.91-29.96,37.69-50.61,39.63-6.69.63-10.81-1.79-13.09-3.92-3.57-3.35-5.45-8.57-5.27-14.7.38-13.16,11.9-37.06,23.82-60.58l-42.9,4.03-4.69,10.09c-.77,1.66-2.4,2.77-4.23,2.88-1.83.11-3.58-.79-4.55-2.34-5.68-9.09-17.26-14.21-31.62-14.21ZM1133.55,394.96h0,0ZM1188.3,231.21h-.01s0,0,.01,0ZM1188.32,231.21h-.01s0,0,.01,0ZM1189.88,230.79c-.48.22-1.01.36-1.56.42.58-.06,1.1-.21,1.56-.42ZM1192.04,228.9c-.27.42-.6.81-.98,1.13.42-.36.75-.75.98-1.13ZM703.01,441.01c-5.64,0-10.56-1.84-14.35-5.4-4.87-4.56-7.42-11.59-7.18-19.79.28-9.97,3.77-20.33,10.09-29.94,9.44-14.95,23.16-25.02,35.76-26.2,6.68-.63,12.5,1.19,16.84,5.25,4.91,4.6,7.48,11.77,7.24,20.19-.76,26.58-26.47,53.96-45.84,55.78h0c-.86.08-1.71.12-2.55.12ZM705.1,435.91h0,0ZM729.87,369.55c-.52,0-1.06.03-1.61.08-9.43.89-20.54,9.39-28.29,21.66-5.34,8.14-8.27,16.7-8.5,24.82-.15,5.3,1.28,9.64,4.02,12.21,2.23,2.09,5.31,2.97,9.13,2.61h0c14.69-1.38,36.19-25.46,36.78-46.11.16-5.52-1.29-9.99-4.08-12.6-1.89-1.77-4.39-2.67-7.45-2.67ZM1035.62,409.79c-5.64,0-10.56-1.84-14.35-5.39-4.87-4.56-7.42-11.59-7.18-19.79.29-9.97,3.77-20.33,10.09-29.94,9.44-14.95,23.16-25.02,35.76-26.2,6.68-.63,12.5,1.19,16.84,5.25,4.91,4.6,7.48,11.77,7.24,20.19-.76,26.58-26.47,53.96-45.84,55.78h0c-.86.08-1.71.12-2.55.12ZM1037.7,404.69h0,0ZM1062.48,338.33c-.52,0-1.06.03-1.61.08-9.43.89-20.54,9.39-28.29,21.66-5.34,8.14-8.27,16.7-8.5,24.82-.15,5.3,1.28,9.64,4.02,12.21,2.23,2.09,5.31,2.97,9.13,2.61h0c14.69-1.38,36.19-25.46,36.78-46.11.16-5.52-1.29-9.99-4.08-12.6-1.89-1.77-4.4-2.67-7.45-2.67Z"/>
            </g>
          </g>
        </g>
        <g>
          <g class="cls-17">
            <g class="cls-12">
              <polygon class="cls-23" points="1340.72 371.81 65.52 491.51 65.06 507.38 1340.27 387.69 1340.72 371.81"/>
            </g>
            <g class="cls-12">
              <polygon class="cls-23" points="1341.04 355.44 65.83 475.13 65.52 485.82 1340.73 366.13 1341.04 355.44"/>
            </g>
            <g class="cls-11">
              <polygon class="cls-23" points="1341.66 333.7 66.45 453.39 66.14 464.09 1341.35 344.39 1341.66 333.7"/>
            </g>
            <g class="cls-15">
              <polygon class="cls-23" points="1342.35 309.48 67.14 429.17 66.97 435.07 1342.18 315.38 1342.35 309.48"/>
            </g>
            <polygon class="cls-19" points="1339.82 397.84 64.61 517.53 64.53 520.49 1339.74 400.8 1339.82 397.84"/>
            <g class="cls-4">
              <polygon class="cls-19" points="1342.59 300.92 67.39 420.61 67.3 423.57 1342.51 303.88 1342.59 300.92"/>
            </g>
            <g class="cls-4">
              <polygon class="cls-19" points="1343.42 271.98 68.21 391.67 68.13 394.63 1343.34 274.94 1343.42 271.98"/>
            </g>
          </g>
          <g class="cls-13">
            <polygon class="cls-19" points="1343.42 271.98 68.21 391.67 68.13 394.63 1343.34 274.94 1343.42 271.98"/>
          </g>
          <g class="cls-2">
            <g class="cls-7">
              <polygon class="cls-23" points="1340.72 371.81 65.52 491.51 65.06 507.38 1340.27 387.69 1340.72 371.81"/>
            </g>
            <g class="cls-7">
              <polygon class="cls-23" points="1341.04 355.44 65.83 475.13 65.52 485.82 1340.73 366.13 1341.04 355.44"/>
            </g>
            <g class="cls-1">
              <polygon class="cls-23" points="1341.66 333.7 66.45 453.39 66.14 464.09 1341.35 344.39 1341.66 333.7"/>
            </g>
            <g class="cls-21">
              <polygon class="cls-23" points="1342.35 309.48 67.14 429.17 66.97 435.07 1342.18 315.38 1342.35 309.48"/>
            </g>
            <polygon class="cls-19" points="1339.82 397.84 64.61 517.53 64.53 520.49 1339.74 400.8 1339.82 397.84"/>
            <g class="cls-25">
              <polygon class="cls-19" points="1342.59 300.92 67.39 420.61 67.3 423.57 1342.51 303.88 1342.59 300.92"/>
            </g>
            <g class="cls-18">
              <polygon class="cls-19" points="1343.42 271.98 68.21 391.67 68.13 394.63 1343.34 274.94 1343.42 271.98"/>
            </g>
          </g>
        </g>
      </g>
    </g>
  </g>
</svg>